%TF.GenerationSoftware,KiCad,Pcbnew,9.0.7*%
%TF.CreationDate,2026-02-09T16:48:07-04:00*%
%TF.ProjectId,Final_Proyect,46696e61-6c5f-4507-926f-796563742e6b,rev?*%
%TF.SameCoordinates,Original*%
%TF.FileFunction,Soldermask,Bot*%
%TF.FilePolarity,Negative*%
%FSLAX46Y46*%
G04 Gerber Fmt 4.6, Leading zero omitted, Abs format (unit mm)*
G04 Created by KiCad (PCBNEW 9.0.7) date 2026-02-09 16:48:07*
%MOMM*%
%LPD*%
G01*
G04 APERTURE LIST*
G04 Aperture macros list*
%AMRoundRect*
0 Rectangle with rounded corners*
0 $1 Rounding radius*
0 $2 $3 $4 $5 $6 $7 $8 $9 X,Y pos of 4 corners*
0 Add a 4 corners polygon primitive as box body*
4,1,4,$2,$3,$4,$5,$6,$7,$8,$9,$2,$3,0*
0 Add four circle primitives for the rounded corners*
1,1,$1+$1,$2,$3*
1,1,$1+$1,$4,$5*
1,1,$1+$1,$6,$7*
1,1,$1+$1,$8,$9*
0 Add four rect primitives between the rounded corners*
20,1,$1+$1,$2,$3,$4,$5,0*
20,1,$1+$1,$4,$5,$6,$7,0*
20,1,$1+$1,$6,$7,$8,$9,0*
20,1,$1+$1,$8,$9,$2,$3,0*%
G04 Aperture macros list end*
%ADD10C,4.000000*%
%ADD11RoundRect,0.250000X-0.600000X-0.750000X0.600000X-0.750000X0.600000X0.750000X-0.600000X0.750000X0*%
%ADD12O,1.700000X2.000000*%
%ADD13RoundRect,0.250000X-0.600000X-0.725000X0.600000X-0.725000X0.600000X0.725000X-0.600000X0.725000X0*%
%ADD14O,1.700000X1.950000*%
%ADD15C,0.650000*%
%ADD16O,2.100000X1.000000*%
%ADD17O,1.800000X1.000000*%
%ADD18C,0.770000*%
%ADD19RoundRect,0.250000X-0.750000X0.600000X-0.750000X-0.600000X0.750000X-0.600000X0.750000X0.600000X0*%
%ADD20O,2.000000X1.700000*%
%ADD21RoundRect,0.250000X0.600000X0.750000X-0.600000X0.750000X-0.600000X-0.750000X0.600000X-0.750000X0*%
%ADD22RoundRect,0.250000X0.725000X-0.600000X0.725000X0.600000X-0.725000X0.600000X-0.725000X-0.600000X0*%
%ADD23O,1.950000X1.700000*%
G04 APERTURE END LIST*
D10*
%TO.C,*%
X180750000Y-85450000D03*
%TD*%
D11*
%TO.C,J6*%
X129250000Y-124200000D03*
D12*
X131750000Y-124200000D03*
%TD*%
D13*
%TO.C,J3*%
X172250000Y-124200000D03*
D14*
X174750000Y-124200000D03*
X177250000Y-124200000D03*
X179750000Y-124200000D03*
%TD*%
D15*
%TO.C,J5*%
X115105000Y-90990000D03*
X115105000Y-96770000D03*
D16*
X115605000Y-89560000D03*
D17*
X111425000Y-89560000D03*
D16*
X115605000Y-98200000D03*
D17*
X111425000Y-98200000D03*
%TD*%
D18*
%TO.C,U3*%
X131100000Y-111700000D03*
X129800000Y-111700000D03*
X128500000Y-111700000D03*
X131100000Y-113000000D03*
X129800000Y-113000000D03*
X128500000Y-113000000D03*
%TD*%
%TO.C,U5*%
X119500000Y-111700000D03*
X118200000Y-111700000D03*
X116900000Y-111700000D03*
X119500000Y-113000000D03*
X118200000Y-113000000D03*
X116900000Y-113000000D03*
%TD*%
D11*
%TO.C,J9*%
X152500000Y-124200000D03*
D12*
X155000000Y-124200000D03*
%TD*%
D10*
%TO.C,*%
X180750000Y-119200000D03*
%TD*%
%TO.C,*%
X112000000Y-119200000D03*
%TD*%
D11*
%TO.C,J8*%
X118000000Y-124200000D03*
D12*
X120500000Y-124200000D03*
%TD*%
D19*
%TO.C,J4*%
X112800000Y-102450000D03*
D20*
X112800000Y-104950000D03*
%TD*%
D18*
%TO.C,U6*%
X154100000Y-111900000D03*
X152800000Y-111900000D03*
X151500000Y-111900000D03*
X154100000Y-113200000D03*
X152800000Y-113200000D03*
X151500000Y-113200000D03*
%TD*%
D11*
%TO.C,J10*%
X163250000Y-124200000D03*
D12*
X165750000Y-124200000D03*
%TD*%
D21*
%TO.C,J2*%
X128750000Y-86450000D03*
D12*
X126250000Y-86450000D03*
%TD*%
D11*
%TO.C,J7*%
X141250000Y-123950000D03*
D12*
X143750000Y-123950000D03*
%TD*%
D18*
%TO.C,U4*%
X142600000Y-111700000D03*
X141300000Y-111700000D03*
X140000000Y-111700000D03*
X142600000Y-113000000D03*
X141300000Y-113000000D03*
X140000000Y-113000000D03*
%TD*%
%TO.C,U7*%
X166250000Y-111900000D03*
X164950000Y-111900000D03*
X163650000Y-111900000D03*
X166250000Y-113200000D03*
X164950000Y-113200000D03*
X163650000Y-113200000D03*
%TD*%
D10*
%TO.C,*%
X112000000Y-85700000D03*
%TD*%
D22*
%TO.C,J1*%
X180000000Y-113560000D03*
D23*
X180000000Y-111060000D03*
X180000000Y-108560000D03*
X180000000Y-106060000D03*
X180000000Y-103560000D03*
X180000000Y-101060000D03*
X180000000Y-98560000D03*
X180000000Y-96060000D03*
X180000000Y-93560000D03*
X180000000Y-91060000D03*
%TD*%
M02*
