%TF.GenerationSoftware,KiCad,Pcbnew,9.0.7*%
%TF.CreationDate,2026-02-09T16:48:07-04:00*%
%TF.ProjectId,Final_Proyect,46696e61-6c5f-4507-926f-796563742e6b,rev?*%
%TF.SameCoordinates,Original*%
%TF.FileFunction,Copper,L1,Top*%
%TF.FilePolarity,Positive*%
%FSLAX46Y46*%
G04 Gerber Fmt 4.6, Leading zero omitted, Abs format (unit mm)*
G04 Created by KiCad (PCBNEW 9.0.7) date 2026-02-09 16:48:07*
%MOMM*%
%LPD*%
G01*
G04 APERTURE LIST*
G04 Aperture macros list*
%AMRoundRect*
0 Rectangle with rounded corners*
0 $1 Rounding radius*
0 $2 $3 $4 $5 $6 $7 $8 $9 X,Y pos of 4 corners*
0 Add a 4 corners polygon primitive as box body*
4,1,4,$2,$3,$4,$5,$6,$7,$8,$9,$2,$3,0*
0 Add four circle primitives for the rounded corners*
1,1,$1+$1,$2,$3*
1,1,$1+$1,$4,$5*
1,1,$1+$1,$6,$7*
1,1,$1+$1,$8,$9*
0 Add four rect primitives between the rounded corners*
20,1,$1+$1,$2,$3,$4,$5,0*
20,1,$1+$1,$4,$5,$6,$7,0*
20,1,$1+$1,$6,$7,$8,$9,0*
20,1,$1+$1,$8,$9,$2,$3,0*%
G04 Aperture macros list end*
%TA.AperFunction,SMDPad,CuDef*%
%ADD10RoundRect,0.250000X-0.450000X0.262500X-0.450000X-0.262500X0.450000X-0.262500X0.450000X0.262500X0*%
%TD*%
%TA.AperFunction,SMDPad,CuDef*%
%ADD11RoundRect,0.250000X0.450000X-0.262500X0.450000X0.262500X-0.450000X0.262500X-0.450000X-0.262500X0*%
%TD*%
%TA.AperFunction,SMDPad,CuDef*%
%ADD12RoundRect,0.225000X-0.250000X0.225000X-0.250000X-0.225000X0.250000X-0.225000X0.250000X0.225000X0*%
%TD*%
%TA.AperFunction,ComponentPad*%
%ADD13C,4.000000*%
%TD*%
%TA.AperFunction,SMDPad,CuDef*%
%ADD14RoundRect,0.250000X1.500000X0.550000X-1.500000X0.550000X-1.500000X-0.550000X1.500000X-0.550000X0*%
%TD*%
%TA.AperFunction,SMDPad,CuDef*%
%ADD15RoundRect,0.250000X-0.262500X-0.450000X0.262500X-0.450000X0.262500X0.450000X-0.262500X0.450000X0*%
%TD*%
%TA.AperFunction,SMDPad,CuDef*%
%ADD16RoundRect,0.218750X-0.218750X-0.256250X0.218750X-0.256250X0.218750X0.256250X-0.218750X0.256250X0*%
%TD*%
%TA.AperFunction,ComponentPad*%
%ADD17RoundRect,0.250000X-0.600000X-0.750000X0.600000X-0.750000X0.600000X0.750000X-0.600000X0.750000X0*%
%TD*%
%TA.AperFunction,ComponentPad*%
%ADD18O,1.700000X2.000000*%
%TD*%
%TA.AperFunction,SMDPad,CuDef*%
%ADD19RoundRect,0.250000X-0.475000X0.250000X-0.475000X-0.250000X0.475000X-0.250000X0.475000X0.250000X0*%
%TD*%
%TA.AperFunction,SMDPad,CuDef*%
%ADD20RoundRect,0.250000X0.475000X-0.250000X0.475000X0.250000X-0.475000X0.250000X-0.475000X-0.250000X0*%
%TD*%
%TA.AperFunction,SMDPad,CuDef*%
%ADD21RoundRect,0.250000X0.262500X0.450000X-0.262500X0.450000X-0.262500X-0.450000X0.262500X-0.450000X0*%
%TD*%
%TA.AperFunction,ComponentPad*%
%ADD22RoundRect,0.250000X-0.600000X-0.725000X0.600000X-0.725000X0.600000X0.725000X-0.600000X0.725000X0*%
%TD*%
%TA.AperFunction,ComponentPad*%
%ADD23O,1.700000X1.950000*%
%TD*%
%TA.AperFunction,SMDPad,CuDef*%
%ADD24RoundRect,0.150000X-0.425000X0.150000X-0.425000X-0.150000X0.425000X-0.150000X0.425000X0.150000X0*%
%TD*%
%TA.AperFunction,SMDPad,CuDef*%
%ADD25RoundRect,0.075000X-0.500000X0.075000X-0.500000X-0.075000X0.500000X-0.075000X0.500000X0.075000X0*%
%TD*%
%TA.AperFunction,HeatsinkPad*%
%ADD26O,2.100000X1.000000*%
%TD*%
%TA.AperFunction,HeatsinkPad*%
%ADD27O,1.800000X1.000000*%
%TD*%
%TA.AperFunction,SMDPad,CuDef*%
%ADD28RoundRect,0.225000X0.250000X-0.225000X0.250000X0.225000X-0.250000X0.225000X-0.250000X-0.225000X0*%
%TD*%
%TA.AperFunction,SMDPad,CuDef*%
%ADD29RoundRect,0.250000X-0.625000X0.312500X-0.625000X-0.312500X0.625000X-0.312500X0.625000X0.312500X0*%
%TD*%
%TA.AperFunction,SMDPad,CuDef*%
%ADD30R,0.500000X2.200000*%
%TD*%
%TA.AperFunction,ComponentPad*%
%ADD31C,0.630000*%
%TD*%
%TA.AperFunction,SMDPad,CuDef*%
%ADD32R,4.900000X2.950000*%
%TD*%
%TA.AperFunction,SMDPad,CuDef*%
%ADD33R,1.500000X0.900000*%
%TD*%
%TA.AperFunction,SMDPad,CuDef*%
%ADD34R,0.900000X1.500000*%
%TD*%
%TA.AperFunction,HeatsinkPad*%
%ADD35C,0.600000*%
%TD*%
%TA.AperFunction,HeatsinkPad*%
%ADD36R,3.900000X3.900000*%
%TD*%
%TA.AperFunction,SMDPad,CuDef*%
%ADD37RoundRect,0.250000X-1.500000X-0.550000X1.500000X-0.550000X1.500000X0.550000X-1.500000X0.550000X0*%
%TD*%
%TA.AperFunction,ComponentPad*%
%ADD38RoundRect,0.250000X-0.750000X0.600000X-0.750000X-0.600000X0.750000X-0.600000X0.750000X0.600000X0*%
%TD*%
%TA.AperFunction,ComponentPad*%
%ADD39O,2.000000X1.700000*%
%TD*%
%TA.AperFunction,SMDPad,CuDef*%
%ADD40RoundRect,0.200000X0.800000X-0.200000X0.800000X0.200000X-0.800000X0.200000X-0.800000X-0.200000X0*%
%TD*%
%TA.AperFunction,SMDPad,CuDef*%
%ADD41RoundRect,0.218750X-0.256250X0.218750X-0.256250X-0.218750X0.256250X-0.218750X0.256250X0.218750X0*%
%TD*%
%TA.AperFunction,SMDPad,CuDef*%
%ADD42RoundRect,0.250000X-0.550000X1.500000X-0.550000X-1.500000X0.550000X-1.500000X0.550000X1.500000X0*%
%TD*%
%TA.AperFunction,ComponentPad*%
%ADD43RoundRect,0.250000X0.600000X0.750000X-0.600000X0.750000X-0.600000X-0.750000X0.600000X-0.750000X0*%
%TD*%
%TA.AperFunction,SMDPad,CuDef*%
%ADD44RoundRect,0.375000X-0.625000X-0.375000X0.625000X-0.375000X0.625000X0.375000X-0.625000X0.375000X0*%
%TD*%
%TA.AperFunction,SMDPad,CuDef*%
%ADD45RoundRect,0.500000X-0.500000X-1.400000X0.500000X-1.400000X0.500000X1.400000X-0.500000X1.400000X0*%
%TD*%
%TA.AperFunction,SMDPad,CuDef*%
%ADD46RoundRect,0.225000X0.225000X0.250000X-0.225000X0.250000X-0.225000X-0.250000X0.225000X-0.250000X0*%
%TD*%
%TA.AperFunction,ComponentPad*%
%ADD47RoundRect,0.250000X0.725000X-0.600000X0.725000X0.600000X-0.725000X0.600000X-0.725000X-0.600000X0*%
%TD*%
%TA.AperFunction,ComponentPad*%
%ADD48O,1.950000X1.700000*%
%TD*%
%TA.AperFunction,ViaPad*%
%ADD49C,0.600000*%
%TD*%
%TA.AperFunction,Conductor*%
%ADD50C,0.400000*%
%TD*%
%TA.AperFunction,Conductor*%
%ADD51C,0.600000*%
%TD*%
%TA.AperFunction,Conductor*%
%ADD52C,0.300000*%
%TD*%
%TA.AperFunction,Conductor*%
%ADD53C,1.000000*%
%TD*%
G04 APERTURE END LIST*
D10*
%TO.P,R21,1*%
%TO.N,/Motor Driver/VREF*%
X125500000Y-108917500D03*
%TO.P,R21,2*%
%TO.N,GND*%
X125500000Y-110742500D03*
%TD*%
D11*
%TO.P,R25,1*%
%TO.N,+12V*%
X137000000Y-115782500D03*
%TO.P,R25,2*%
%TO.N,/Motor Driver1/VREF*%
X137000000Y-113957500D03*
%TD*%
D12*
%TO.P,C6,1*%
%TO.N,GND*%
X141200000Y-84425000D03*
%TO.P,C6,2*%
%TO.N,EN*%
X141200000Y-85975000D03*
%TD*%
D13*
%TO.P,,1*%
%TO.N,N/C*%
X180750000Y-85450000D03*
%TD*%
D14*
%TO.P,C18,1*%
%TO.N,+12V*%
X150300000Y-103100000D03*
%TO.P,C18,2*%
%TO.N,GND*%
X144700000Y-103100000D03*
%TD*%
D15*
%TO.P,R19,1*%
%TO.N,/Motor Driver/IN1*%
X149287500Y-92200000D03*
%TO.P,R19,2*%
%TO.N,A-*%
X151112500Y-92200000D03*
%TD*%
D16*
%TO.P,D1,1,K*%
%TO.N,GND*%
X119162500Y-98930000D03*
%TO.P,D1,2,A*%
%TO.N,Net-(D1-A)*%
X120737500Y-98930000D03*
%TD*%
D17*
%TO.P,J6,1,Pin_1*%
%TO.N,/Motor Driver/M1*%
X129250000Y-124200000D03*
D18*
%TO.P,J6,2,Pin_2*%
%TO.N,/Motor Driver/M2*%
X131750000Y-124200000D03*
%TD*%
D10*
%TO.P,R41,1*%
%TO.N,/Motor Driver4/VREF*%
X160650000Y-109137500D03*
%TO.P,R41,2*%
%TO.N,GND*%
X160650000Y-110962500D03*
%TD*%
D19*
%TO.P,C19,1*%
%TO.N,/Motor Driver4/VREF*%
X158150000Y-109080000D03*
%TO.P,C19,2*%
%TO.N,GND*%
X158150000Y-110980000D03*
%TD*%
D10*
%TO.P,R13,1*%
%TO.N,+3V3*%
X150200000Y-84287500D03*
%TO.P,R13,2*%
%TO.N,EN*%
X150200000Y-86112500D03*
%TD*%
D20*
%TO.P,C20,1*%
%TO.N,+12V*%
X158150000Y-116000000D03*
%TO.P,C20,2*%
%TO.N,GND*%
X158150000Y-114100000D03*
%TD*%
D21*
%TO.P,R7,1*%
%TO.N,Net-(J1-Pin_7)*%
X176912500Y-99200000D03*
%TO.P,R7,2*%
%TO.N,SIG4*%
X175087500Y-99200000D03*
%TD*%
D22*
%TO.P,J3,1,Pin_1*%
%TO.N,SDA*%
X172250000Y-124200000D03*
D23*
%TO.P,J3,2,Pin_2*%
%TO.N,SCL*%
X174750000Y-124200000D03*
%TO.P,J3,3,Pin_3*%
%TO.N,GND*%
X177250000Y-124200000D03*
%TO.P,J3,4,Pin_4*%
%TO.N,+3V3*%
X179750000Y-124200000D03*
%TD*%
D24*
%TO.P,J5,A1,GND*%
%TO.N,GND*%
X116180000Y-90680000D03*
%TO.P,J5,A4,VBUS*%
%TO.N,+3V3*%
X116180000Y-91480000D03*
D25*
%TO.P,J5,A5,CC1*%
%TO.N,Net-(J5-CC1)*%
X116180000Y-92630000D03*
%TO.P,J5,A6,D+*%
%TO.N,D+*%
X116180000Y-93630000D03*
%TO.P,J5,A7,D-*%
%TO.N,D-*%
X116180000Y-94130000D03*
%TO.P,J5,A8,SBU1*%
%TO.N,unconnected-(J5-SBU1-PadA8)*%
X116180000Y-95130000D03*
D24*
%TO.P,J5,A9,VBUS*%
%TO.N,+3V3*%
X116180000Y-96280000D03*
%TO.P,J5,A12,GND*%
%TO.N,GND*%
X116180000Y-97080000D03*
%TO.P,J5,B1,GND*%
X116180000Y-97080000D03*
%TO.P,J5,B4,VBUS*%
%TO.N,+3V3*%
X116180000Y-96280000D03*
D25*
%TO.P,J5,B5,CC2*%
%TO.N,Net-(J5-CC2)*%
X116180000Y-95630000D03*
%TO.P,J5,B6,D+*%
%TO.N,D+*%
X116180000Y-94630000D03*
%TO.P,J5,B7,D-*%
%TO.N,D-*%
X116180000Y-93130000D03*
%TO.P,J5,B8,SBU2*%
%TO.N,unconnected-(J5-SBU2-PadB8)*%
X116180000Y-92130000D03*
D24*
%TO.P,J5,B9,VBUS*%
%TO.N,+3V3*%
X116180000Y-91480000D03*
%TO.P,J5,B12,GND*%
%TO.N,GND*%
X116180000Y-90680000D03*
D26*
%TO.P,J5,S1,SHIELD*%
X115605000Y-89560000D03*
D27*
X111425000Y-89560000D03*
D26*
X115605000Y-98200000D03*
D27*
X111425000Y-98200000D03*
%TD*%
D21*
%TO.P,R18,1*%
%TO.N,A+*%
X151112500Y-90200000D03*
%TO.P,R18,2*%
%TO.N,/Motor Driver/IN2*%
X149287500Y-90200000D03*
%TD*%
%TO.P,R8,1*%
%TO.N,Net-(J1-Pin_8)*%
X176912500Y-97200000D03*
%TO.P,R8,2*%
%TO.N,SIG3*%
X175087500Y-97200000D03*
%TD*%
%TO.P,R9,1*%
%TO.N,Net-(J1-Pin_9)*%
X176912500Y-95200000D03*
%TO.P,R9,2*%
%TO.N,SIG2*%
X175087500Y-95200000D03*
%TD*%
%TO.P,R23,1*%
%TO.N,B+*%
X151112500Y-94200000D03*
%TO.P,R23,2*%
%TO.N,/Motor Driver1/IN2*%
X149287500Y-94200000D03*
%TD*%
D15*
%TO.P,R24,1*%
%TO.N,/Motor Driver1/IN1*%
X149287500Y-96200000D03*
%TO.P,R24,2*%
%TO.N,B-*%
X151112500Y-96200000D03*
%TD*%
D28*
%TO.P,C3,1*%
%TO.N,+3V3*%
X135120000Y-85975000D03*
%TO.P,C3,2*%
%TO.N,GND*%
X135120000Y-84425000D03*
%TD*%
D29*
%TO.P,R27,1*%
%TO.N,/Motor Driver2/ISEN*%
X119000000Y-117837500D03*
%TO.P,R27,2*%
%TO.N,GND*%
X119000000Y-120762500D03*
%TD*%
D14*
%TO.P,C12,1*%
%TO.N,+12V*%
X140300000Y-103100000D03*
%TO.P,C12,2*%
%TO.N,GND*%
X134700000Y-103100000D03*
%TD*%
D30*
%TO.P,U3,1,GND*%
%TO.N,GND*%
X131705000Y-109475000D03*
%TO.P,U3,2,IN2*%
%TO.N,/Motor Driver/IN2*%
X130435000Y-109475000D03*
%TO.P,U3,3,IN1*%
%TO.N,/Motor Driver/IN1*%
X129165000Y-109475000D03*
%TO.P,U3,4,VREF*%
%TO.N,/Motor Driver/VREF*%
X127895000Y-109475000D03*
%TO.P,U3,5,VM*%
%TO.N,+12V*%
X127895000Y-115225000D03*
%TO.P,U3,6,OUT1*%
%TO.N,/Motor Driver/M1*%
X129165000Y-115225000D03*
%TO.P,U3,7,ISEN*%
%TO.N,/Motor Driver/ISEN*%
X130435000Y-115225000D03*
%TO.P,U3,8,OUT2*%
%TO.N,/Motor Driver/M2*%
X131705000Y-115225000D03*
D31*
%TO.P,U3,9,GND*%
%TO.N,GND*%
X131100000Y-111700000D03*
X129800000Y-111700000D03*
X128500000Y-111700000D03*
D32*
X129800000Y-112350000D03*
D31*
X131100000Y-113000000D03*
X129800000Y-113000000D03*
X128500000Y-113000000D03*
%TD*%
D30*
%TO.P,U5,1,GND*%
%TO.N,GND*%
X120105000Y-109475000D03*
%TO.P,U5,2,IN2*%
%TO.N,/Motor Driver2/IN2*%
X118835000Y-109475000D03*
%TO.P,U5,3,IN1*%
%TO.N,/Motor Driver2/IN1*%
X117565000Y-109475000D03*
%TO.P,U5,4,VREF*%
%TO.N,/Motor Driver2/VREF*%
X116295000Y-109475000D03*
%TO.P,U5,5,VM*%
%TO.N,+12V*%
X116295000Y-115225000D03*
%TO.P,U5,6,OUT1*%
%TO.N,/Motor Driver2/M1*%
X117565000Y-115225000D03*
%TO.P,U5,7,ISEN*%
%TO.N,/Motor Driver2/ISEN*%
X118835000Y-115225000D03*
%TO.P,U5,8,OUT2*%
%TO.N,/Motor Driver2/M2*%
X120105000Y-115225000D03*
D31*
%TO.P,U5,9,GND*%
%TO.N,GND*%
X119500000Y-111700000D03*
X118200000Y-111700000D03*
X116900000Y-111700000D03*
D32*
X118200000Y-112350000D03*
D31*
X119500000Y-113000000D03*
X118200000Y-113000000D03*
X116900000Y-113000000D03*
%TD*%
D10*
%TO.P,R26,1*%
%TO.N,/Motor Driver1/VREF*%
X137000000Y-108887500D03*
%TO.P,R26,2*%
%TO.N,GND*%
X137000000Y-110712500D03*
%TD*%
D11*
%TO.P,R11,1*%
%TO.N,Net-(D1-A)*%
X124300000Y-98932500D03*
%TO.P,R11,2*%
%TO.N,+12V*%
X124300000Y-97107500D03*
%TD*%
D17*
%TO.P,J9,1,Pin_1*%
%TO.N,/Motor Driver3/M1*%
X152500000Y-124200000D03*
D18*
%TO.P,J9,2,Pin_2*%
%TO.N,/Motor Driver3/M2*%
X155000000Y-124200000D03*
%TD*%
D33*
%TO.P,U1,1,GND*%
%TO.N,GND*%
X153950000Y-83940000D03*
%TO.P,U1,2,3V3*%
%TO.N,+3V3*%
X153950000Y-85210000D03*
%TO.P,U1,3,EN*%
%TO.N,EN*%
X153950000Y-86480000D03*
%TO.P,U1,4,IO4*%
%TO.N,Led*%
X153950000Y-87750000D03*
%TO.P,U1,5,IO5*%
%TO.N,A+*%
X153950000Y-89020000D03*
%TO.P,U1,6,IO6*%
%TO.N,A-*%
X153950000Y-90290000D03*
%TO.P,U1,7,IO7*%
%TO.N,B+*%
X153950000Y-91560000D03*
%TO.P,U1,8,IO15*%
%TO.N,B-*%
X153950000Y-92830000D03*
%TO.P,U1,9,IO16*%
%TO.N,C+*%
X153950000Y-94100000D03*
%TO.P,U1,10,IO17*%
%TO.N,C-*%
X153950000Y-95370000D03*
%TO.P,U1,11,IO18*%
%TO.N,E+*%
X153950000Y-96640000D03*
%TO.P,U1,12,IO8*%
%TO.N,E-*%
X153950000Y-97910000D03*
%TO.P,U1,13,USB_D-*%
%TO.N,D-*%
X153950000Y-99180000D03*
%TO.P,U1,14,USB_D+*%
%TO.N,D+*%
X153950000Y-100450000D03*
D34*
%TO.P,U1,15,IO3*%
%TO.N,unconnected-(U1-IO3-Pad15)*%
X155715000Y-101700000D03*
%TO.P,U1,16,IO46*%
%TO.N,unconnected-(U1-IO46-Pad16)*%
X156985000Y-101700000D03*
%TO.P,U1,17,IO9*%
%TO.N,unconnected-(U1-IO9-Pad17)*%
X158255000Y-101700000D03*
%TO.P,U1,18,IO10*%
%TO.N,SDA*%
X159525000Y-101700000D03*
%TO.P,U1,19,IO11*%
%TO.N,SCL*%
X160795000Y-101700000D03*
%TO.P,U1,20,IO12*%
%TO.N,unconnected-(U1-IO12-Pad20)*%
X162065000Y-101700000D03*
%TO.P,U1,21,IO13*%
%TO.N,unconnected-(U1-IO13-Pad21)*%
X163335000Y-101700000D03*
%TO.P,U1,22,IO14*%
%TO.N,SIG10*%
X164605000Y-101700000D03*
%TO.P,U1,23,IO21*%
%TO.N,SIG9*%
X165875000Y-101700000D03*
%TO.P,U1,24,IO47*%
%TO.N,SIG8*%
X167145000Y-101700000D03*
%TO.P,U1,25,IO48*%
%TO.N,SIG7*%
X168415000Y-101700000D03*
%TO.P,U1,26,IO45*%
%TO.N,SIG6*%
X169685000Y-101700000D03*
D33*
%TO.P,U1,27,IO0*%
%TO.N,BOOT*%
X171450000Y-100450000D03*
%TO.P,U1,28,IO35*%
%TO.N,unconnected-(U1-IO35-Pad28)*%
X171450000Y-99180000D03*
%TO.P,U1,29,IO36*%
%TO.N,unconnected-(U1-IO36-Pad29)*%
X171450000Y-97910000D03*
%TO.P,U1,30,IO37*%
%TO.N,unconnected-(U1-IO37-Pad30)*%
X171450000Y-96640000D03*
%TO.P,U1,31,IO38*%
%TO.N,F-*%
X171450000Y-95370000D03*
%TO.P,U1,32,IO39*%
%TO.N,F+*%
X171450000Y-94100000D03*
%TO.P,U1,33,IO40*%
%TO.N,SIG5*%
X171450000Y-92830000D03*
%TO.P,U1,34,IO41*%
%TO.N,SIG4*%
X171450000Y-91560000D03*
%TO.P,U1,35,IO42*%
%TO.N,SIG3*%
X171450000Y-90290000D03*
%TO.P,U1,36,RXD0*%
%TO.N,unconnected-(U1-RXD0-Pad36)*%
X171450000Y-89020000D03*
%TO.P,U1,37,TXD0*%
%TO.N,unconnected-(U1-TXD0-Pad37)*%
X171450000Y-87750000D03*
%TO.P,U1,38,IO2*%
%TO.N,SIG1*%
X171450000Y-86480000D03*
%TO.P,U1,39,IO1*%
%TO.N,SIG2*%
X171450000Y-85210000D03*
%TO.P,U1,40,GND*%
%TO.N,GND*%
X171450000Y-83940000D03*
D35*
%TO.P,U1,41,GND*%
X159800000Y-90960000D03*
X159800000Y-92360000D03*
X160500000Y-90260000D03*
X160500000Y-91660000D03*
X160500000Y-93060000D03*
X161200000Y-90960000D03*
D36*
X161200000Y-91660000D03*
D35*
X161200000Y-92360000D03*
X161900000Y-90260000D03*
X161900000Y-91660000D03*
X161900000Y-93060000D03*
X162600000Y-90960000D03*
X162600000Y-92360000D03*
%TD*%
D20*
%TO.P,C11,1*%
%TO.N,+12V*%
X134500000Y-115800000D03*
%TO.P,C11,2*%
%TO.N,GND*%
X134500000Y-113900000D03*
%TD*%
D28*
%TO.P,C4,1*%
%TO.N,+3V3*%
X132950000Y-85975000D03*
%TO.P,C4,2*%
%TO.N,GND*%
X132950000Y-84425000D03*
%TD*%
%TO.P,C5,1*%
%TO.N,EN*%
X143200000Y-85975000D03*
%TO.P,C5,2*%
%TO.N,GND*%
X143200000Y-84425000D03*
%TD*%
D13*
%TO.P,,1*%
%TO.N,N/C*%
X180750000Y-119200000D03*
%TD*%
%TO.P,,1*%
%TO.N,N/C*%
X112000000Y-119200000D03*
%TD*%
D11*
%TO.P,R35,1*%
%TO.N,+12V*%
X148500000Y-115712500D03*
%TO.P,R35,2*%
%TO.N,/Motor Driver3/VREF*%
X148500000Y-113887500D03*
%TD*%
D20*
%TO.P,C8,1*%
%TO.N,+12V*%
X123000000Y-115800000D03*
%TO.P,C8,2*%
%TO.N,GND*%
X123000000Y-113900000D03*
%TD*%
D11*
%TO.P,R20,1*%
%TO.N,+12V*%
X125500000Y-115782500D03*
%TO.P,R20,2*%
%TO.N,/Motor Driver/VREF*%
X125500000Y-113957500D03*
%TD*%
D12*
%TO.P,C2,1*%
%TO.N,+3V3*%
X137120000Y-84425000D03*
%TO.P,C2,2*%
%TO.N,GND*%
X137120000Y-85975000D03*
%TD*%
D21*
%TO.P,R1,1*%
%TO.N,Net-(J1-Pin_1)*%
X171912500Y-108700000D03*
%TO.P,R1,2*%
%TO.N,SIG10*%
X170087500Y-108700000D03*
%TD*%
D10*
%TO.P,R28,1*%
%TO.N,C+*%
X142200000Y-88512500D03*
%TO.P,R28,2*%
%TO.N,/Motor Driver2/IN2*%
X142200000Y-90337500D03*
%TD*%
D15*
%TO.P,R16,1*%
%TO.N,Net-(D2-A)*%
X149287500Y-88270000D03*
%TO.P,R16,2*%
%TO.N,Led*%
X151112500Y-88270000D03*
%TD*%
D21*
%TO.P,R39,1*%
%TO.N,/Motor Driver4/IN1*%
X160912500Y-106200000D03*
%TO.P,R39,2*%
%TO.N,F-*%
X159087500Y-106200000D03*
%TD*%
D29*
%TO.P,R17,1*%
%TO.N,/Motor Driver/ISEN*%
X130500000Y-117837500D03*
%TO.P,R17,2*%
%TO.N,GND*%
X130500000Y-120762500D03*
%TD*%
D15*
%TO.P,R29,1*%
%TO.N,/Motor Driver2/IN1*%
X133787500Y-97200000D03*
%TO.P,R29,2*%
%TO.N,C-*%
X135612500Y-97200000D03*
%TD*%
D20*
%TO.P,C17,1*%
%TO.N,+12V*%
X146000000Y-115750000D03*
%TO.P,C17,2*%
%TO.N,GND*%
X146000000Y-113850000D03*
%TD*%
D17*
%TO.P,J8,1,Pin_1*%
%TO.N,/Motor Driver2/M1*%
X118000000Y-124200000D03*
D18*
%TO.P,J8,2,Pin_2*%
%TO.N,/Motor Driver2/M2*%
X120500000Y-124200000D03*
%TD*%
D10*
%TO.P,R31,1*%
%TO.N,/Motor Driver2/VREF*%
X114000000Y-108917500D03*
%TO.P,R31,2*%
%TO.N,GND*%
X114000000Y-110742500D03*
%TD*%
D37*
%TO.P,C21,1*%
%TO.N,+12V*%
X169950000Y-113300000D03*
%TO.P,C21,2*%
%TO.N,GND*%
X175550000Y-113300000D03*
%TD*%
D38*
%TO.P,J4,1,Pin_1*%
%TO.N,+12V*%
X112800000Y-102450000D03*
D39*
%TO.P,J4,2,Pin_2*%
%TO.N,GND*%
X112800000Y-104950000D03*
%TD*%
D21*
%TO.P,R10,1*%
%TO.N,Net-(J1-Pin_10)*%
X176912500Y-93200000D03*
%TO.P,R10,2*%
%TO.N,SIG1*%
X175087500Y-93200000D03*
%TD*%
%TO.P,R6,1*%
%TO.N,Net-(J1-Pin_6)*%
X176912500Y-101200000D03*
%TO.P,R6,2*%
%TO.N,SIG5*%
X175087500Y-101200000D03*
%TD*%
D40*
%TO.P,BOOT1,1,A*%
%TO.N,Net-(BOOT1-A)*%
X174700000Y-88300000D03*
%TO.P,BOOT1,2,B*%
%TO.N,GND*%
X174700000Y-84100000D03*
%TD*%
D11*
%TO.P,R34,1*%
%TO.N,/Motor Driver3/IN1*%
X153000000Y-107112500D03*
%TO.P,R34,2*%
%TO.N,E-*%
X153000000Y-105287500D03*
%TD*%
D21*
%TO.P,R5,1*%
%TO.N,Net-(J1-Pin_5)*%
X176912500Y-103200000D03*
%TO.P,R5,2*%
%TO.N,SIG6*%
X175087500Y-103200000D03*
%TD*%
D11*
%TO.P,R40,1*%
%TO.N,+12V*%
X160650000Y-115982500D03*
%TO.P,R40,2*%
%TO.N,/Motor Driver4/VREF*%
X160650000Y-114157500D03*
%TD*%
D30*
%TO.P,U6,1,GND*%
%TO.N,GND*%
X154705000Y-109675000D03*
%TO.P,U6,2,IN2*%
%TO.N,/Motor Driver3/IN2*%
X153435000Y-109675000D03*
%TO.P,U6,3,IN1*%
%TO.N,/Motor Driver3/IN1*%
X152165000Y-109675000D03*
%TO.P,U6,4,VREF*%
%TO.N,/Motor Driver3/VREF*%
X150895000Y-109675000D03*
%TO.P,U6,5,VM*%
%TO.N,+12V*%
X150895000Y-115425000D03*
%TO.P,U6,6,OUT1*%
%TO.N,/Motor Driver3/M1*%
X152165000Y-115425000D03*
%TO.P,U6,7,ISEN*%
%TO.N,/Motor Driver3/ISEN*%
X153435000Y-115425000D03*
%TO.P,U6,8,OUT2*%
%TO.N,/Motor Driver3/M2*%
X154705000Y-115425000D03*
D31*
%TO.P,U6,9,GND*%
%TO.N,GND*%
X154100000Y-111900000D03*
X152800000Y-111900000D03*
X151500000Y-111900000D03*
D32*
X152800000Y-112550000D03*
D31*
X154100000Y-113200000D03*
X152800000Y-113200000D03*
X151500000Y-113200000D03*
%TD*%
D17*
%TO.P,J10,1,Pin_1*%
%TO.N,/Motor Driver4/M1*%
X163250000Y-124200000D03*
D18*
%TO.P,J10,2,Pin_2*%
%TO.N,/Motor Driver4/M2*%
X165750000Y-124200000D03*
%TD*%
D19*
%TO.P,C16,1*%
%TO.N,/Motor Driver3/VREF*%
X146000000Y-108850000D03*
%TO.P,C16,2*%
%TO.N,GND*%
X146000000Y-110750000D03*
%TD*%
D10*
%TO.P,R36,1*%
%TO.N,/Motor Driver3/VREF*%
X148500000Y-108887500D03*
%TO.P,R36,2*%
%TO.N,GND*%
X148500000Y-110712500D03*
%TD*%
D40*
%TO.P,EN1,1,A*%
%TO.N,EN*%
X146200000Y-88570000D03*
%TO.P,EN1,2,B*%
%TO.N,GND*%
X146200000Y-84370000D03*
%TD*%
D41*
%TO.P,D2,1,K*%
%TO.N,GND*%
X139200000Y-84412500D03*
%TO.P,D2,2,A*%
%TO.N,Net-(D2-A)*%
X139200000Y-85987500D03*
%TD*%
D42*
%TO.P,C9,1*%
%TO.N,+12V*%
X129000000Y-98700000D03*
%TO.P,C9,2*%
%TO.N,GND*%
X129000000Y-104300000D03*
%TD*%
D29*
%TO.P,R22,1*%
%TO.N,/Motor Driver1/ISEN*%
X142500000Y-117737500D03*
%TO.P,R22,2*%
%TO.N,GND*%
X142500000Y-120662500D03*
%TD*%
D11*
%TO.P,R30,1*%
%TO.N,+12V*%
X114000000Y-115782500D03*
%TO.P,R30,2*%
%TO.N,/Motor Driver2/VREF*%
X114000000Y-113957500D03*
%TD*%
D19*
%TO.P,C13,1*%
%TO.N,/Motor Driver2/VREF*%
X111500000Y-108900000D03*
%TO.P,C13,2*%
%TO.N,GND*%
X111500000Y-110800000D03*
%TD*%
%TO.P,C7,1*%
%TO.N,/Motor Driver/VREF*%
X123000000Y-108900000D03*
%TO.P,C7,2*%
%TO.N,GND*%
X123000000Y-110800000D03*
%TD*%
D43*
%TO.P,J2,1,Pin_1*%
%TO.N,+3V3*%
X128750000Y-86450000D03*
D18*
%TO.P,J2,2,Pin_2*%
%TO.N,GND*%
X126250000Y-86450000D03*
%TD*%
D15*
%TO.P,R12,1*%
%TO.N,Net-(BOOT1-A)*%
X173787500Y-90200000D03*
%TO.P,R12,2*%
%TO.N,BOOT*%
X175612500Y-90200000D03*
%TD*%
D21*
%TO.P,R4,1*%
%TO.N,Net-(J1-Pin_4)*%
X176912500Y-105200000D03*
%TO.P,R4,2*%
%TO.N,SIG7*%
X175087500Y-105200000D03*
%TD*%
D19*
%TO.P,C10,1*%
%TO.N,/Motor Driver1/VREF*%
X134500000Y-108850000D03*
%TO.P,C10,2*%
%TO.N,GND*%
X134500000Y-110750000D03*
%TD*%
D17*
%TO.P,J7,1,Pin_1*%
%TO.N,/Motor Driver1/M1*%
X141250000Y-123950000D03*
D18*
%TO.P,J7,2,Pin_2*%
%TO.N,/Motor Driver1/M2*%
X143750000Y-123950000D03*
%TD*%
D21*
%TO.P,R2,1*%
%TO.N,Net-(J1-Pin_2)*%
X171912500Y-106700000D03*
%TO.P,R2,2*%
%TO.N,SIG9*%
X170087500Y-106700000D03*
%TD*%
D44*
%TO.P,U2,1,GND*%
%TO.N,GND*%
X133470000Y-89120000D03*
%TO.P,U2,2,VO*%
%TO.N,+3V3*%
X133470000Y-91420000D03*
D45*
X139770000Y-91420000D03*
D44*
%TO.P,U2,3,VI*%
%TO.N,+12V*%
X133470000Y-93720000D03*
%TD*%
D29*
%TO.P,R32,1*%
%TO.N,/Motor Driver3/ISEN*%
X153500000Y-117837500D03*
%TO.P,R32,2*%
%TO.N,GND*%
X153500000Y-120762500D03*
%TD*%
D15*
%TO.P,R15,1*%
%TO.N,Net-(J5-CC2)*%
X118837500Y-95200000D03*
%TO.P,R15,2*%
%TO.N,GND*%
X120662500Y-95200000D03*
%TD*%
D37*
%TO.P,C15,1*%
%TO.N,+12V*%
X117400000Y-103700000D03*
%TO.P,C15,2*%
%TO.N,GND*%
X123000000Y-103700000D03*
%TD*%
D30*
%TO.P,U4,1,GND*%
%TO.N,GND*%
X143205000Y-109475000D03*
%TO.P,U4,2,IN2*%
%TO.N,/Motor Driver1/IN2*%
X141935000Y-109475000D03*
%TO.P,U4,3,IN1*%
%TO.N,/Motor Driver1/IN1*%
X140665000Y-109475000D03*
%TO.P,U4,4,VREF*%
%TO.N,/Motor Driver1/VREF*%
X139395000Y-109475000D03*
%TO.P,U4,5,VM*%
%TO.N,+12V*%
X139395000Y-115225000D03*
%TO.P,U4,6,OUT1*%
%TO.N,/Motor Driver1/M1*%
X140665000Y-115225000D03*
%TO.P,U4,7,ISEN*%
%TO.N,/Motor Driver1/ISEN*%
X141935000Y-115225000D03*
%TO.P,U4,8,OUT2*%
%TO.N,/Motor Driver1/M2*%
X143205000Y-115225000D03*
D31*
%TO.P,U4,9,GND*%
%TO.N,GND*%
X142600000Y-111700000D03*
X141300000Y-111700000D03*
X140000000Y-111700000D03*
D32*
X141300000Y-112350000D03*
D31*
X142600000Y-113000000D03*
X141300000Y-113000000D03*
X140000000Y-113000000D03*
%TD*%
D21*
%TO.P,R3,1*%
%TO.N,Net-(J1-Pin_3)*%
X171912500Y-104700000D03*
%TO.P,R3,2*%
%TO.N,SIG8*%
X170087500Y-104700000D03*
%TD*%
D46*
%TO.P,C1,1*%
%TO.N,+12V*%
X120725000Y-97200000D03*
%TO.P,C1,2*%
%TO.N,GND*%
X119175000Y-97200000D03*
%TD*%
D10*
%TO.P,R33,1*%
%TO.N,E+*%
X155250000Y-105287500D03*
%TO.P,R33,2*%
%TO.N,/Motor Driver3/IN2*%
X155250000Y-107112500D03*
%TD*%
D11*
%TO.P,R14,1*%
%TO.N,Net-(J5-CC1)*%
X119000000Y-91612500D03*
%TO.P,R14,2*%
%TO.N,GND*%
X119000000Y-89787500D03*
%TD*%
D21*
%TO.P,R38,1*%
%TO.N,F+*%
X164662500Y-106200000D03*
%TO.P,R38,2*%
%TO.N,/Motor Driver4/IN2*%
X162837500Y-106200000D03*
%TD*%
D20*
%TO.P,C14,1*%
%TO.N,+12V*%
X111500000Y-115800000D03*
%TO.P,C14,2*%
%TO.N,GND*%
X111500000Y-113900000D03*
%TD*%
D29*
%TO.P,R37,1*%
%TO.N,/Motor Driver4/ISEN*%
X165500000Y-117800000D03*
%TO.P,R37,2*%
%TO.N,GND*%
X165500000Y-120725000D03*
%TD*%
D30*
%TO.P,U7,1,GND*%
%TO.N,GND*%
X166855000Y-109675000D03*
%TO.P,U7,2,IN2*%
%TO.N,/Motor Driver4/IN2*%
X165585000Y-109675000D03*
%TO.P,U7,3,IN1*%
%TO.N,/Motor Driver4/IN1*%
X164315000Y-109675000D03*
%TO.P,U7,4,VREF*%
%TO.N,/Motor Driver4/VREF*%
X163045000Y-109675000D03*
%TO.P,U7,5,VM*%
%TO.N,+12V*%
X163045000Y-115425000D03*
%TO.P,U7,6,OUT1*%
%TO.N,/Motor Driver4/M1*%
X164315000Y-115425000D03*
%TO.P,U7,7,ISEN*%
%TO.N,/Motor Driver4/ISEN*%
X165585000Y-115425000D03*
%TO.P,U7,8,OUT2*%
%TO.N,/Motor Driver4/M2*%
X166855000Y-115425000D03*
D31*
%TO.P,U7,9,GND*%
%TO.N,GND*%
X166250000Y-111900000D03*
X164950000Y-111900000D03*
X163650000Y-111900000D03*
D32*
X164950000Y-112550000D03*
D31*
X166250000Y-113200000D03*
X164950000Y-113200000D03*
X163650000Y-113200000D03*
%TD*%
D13*
%TO.P,,1*%
%TO.N,N/C*%
X112000000Y-85700000D03*
%TD*%
D47*
%TO.P,J1,1,Pin_1*%
%TO.N,Net-(J1-Pin_1)*%
X180000000Y-113560000D03*
D48*
%TO.P,J1,2,Pin_2*%
%TO.N,Net-(J1-Pin_2)*%
X180000000Y-111060000D03*
%TO.P,J1,3,Pin_3*%
%TO.N,Net-(J1-Pin_3)*%
X180000000Y-108560000D03*
%TO.P,J1,4,Pin_4*%
%TO.N,Net-(J1-Pin_4)*%
X180000000Y-106060000D03*
%TO.P,J1,5,Pin_5*%
%TO.N,Net-(J1-Pin_5)*%
X180000000Y-103560000D03*
%TO.P,J1,6,Pin_6*%
%TO.N,Net-(J1-Pin_6)*%
X180000000Y-101060000D03*
%TO.P,J1,7,Pin_7*%
%TO.N,Net-(J1-Pin_7)*%
X180000000Y-98560000D03*
%TO.P,J1,8,Pin_8*%
%TO.N,Net-(J1-Pin_8)*%
X180000000Y-96060000D03*
%TO.P,J1,9,Pin_9*%
%TO.N,Net-(J1-Pin_9)*%
X180000000Y-93560000D03*
%TO.P,J1,10,Pin_10*%
%TO.N,Net-(J1-Pin_10)*%
X180000000Y-91060000D03*
%TD*%
D49*
%TO.N,GND*%
X123250000Y-105200000D03*
X175000000Y-111200000D03*
X175750000Y-114700000D03*
X175000000Y-114700000D03*
X153500000Y-119700000D03*
X175000000Y-115450000D03*
X119750000Y-118950000D03*
X164750000Y-118950000D03*
X159500000Y-112200000D03*
X126250000Y-102450000D03*
X153500000Y-118950000D03*
X152750000Y-118950000D03*
X175750000Y-111200000D03*
X175750000Y-115450000D03*
X166250000Y-119700000D03*
X141750000Y-119700000D03*
X123750000Y-111950000D03*
X158750000Y-112200000D03*
X165500000Y-118950000D03*
X126250000Y-103200000D03*
X131250000Y-119700000D03*
X146500000Y-111950000D03*
X127250000Y-102450000D03*
X158750000Y-112950000D03*
X111000000Y-112700000D03*
X145750000Y-111950000D03*
X111000000Y-111950000D03*
X135000000Y-88700000D03*
X122500000Y-105200000D03*
X119750000Y-119700000D03*
X142500000Y-119700000D03*
X154250000Y-118950000D03*
X119000000Y-119700000D03*
X165500000Y-119700000D03*
X134500000Y-111950000D03*
X131500000Y-102450000D03*
X174250000Y-111200000D03*
X130500000Y-103950000D03*
X123750000Y-112700000D03*
X131500000Y-103200000D03*
X130500000Y-119700000D03*
X122549997Y-102200000D03*
X158000000Y-112200000D03*
X127250000Y-103950000D03*
X152750000Y-119700000D03*
X141750000Y-118950000D03*
X154250000Y-119700000D03*
X166250000Y-118950000D03*
X126250000Y-103950000D03*
X123000000Y-111950000D03*
X112500000Y-111950000D03*
X134500000Y-112700000D03*
X145500000Y-101450000D03*
X136500000Y-104450000D03*
X130500000Y-103200000D03*
X111750000Y-111950000D03*
X127250000Y-103200000D03*
X135250000Y-111950000D03*
X124500000Y-111950000D03*
X175000000Y-111950000D03*
X123000000Y-112700000D03*
X144750000Y-105200000D03*
X147250000Y-111950000D03*
X144750000Y-101450000D03*
X135000000Y-90200000D03*
X135750000Y-104450000D03*
X143250000Y-118950000D03*
X135250000Y-112700000D03*
X146250000Y-101450000D03*
X135000000Y-89450000D03*
X143250000Y-119700000D03*
X111750000Y-112700000D03*
X123250000Y-102200000D03*
X158000000Y-112950000D03*
X135750000Y-105200000D03*
X136000000Y-111950000D03*
X136500000Y-105200000D03*
X146500000Y-112700000D03*
X145500000Y-105200000D03*
X142500000Y-118950000D03*
X131500000Y-103950000D03*
X164750000Y-119700000D03*
X175750000Y-111950000D03*
X174250000Y-114700000D03*
X129750000Y-119700000D03*
X118250000Y-118950000D03*
X119000000Y-118950000D03*
X146250000Y-105200000D03*
X174250000Y-111950000D03*
X145750000Y-112700000D03*
X130500000Y-102450000D03*
X118250000Y-119700000D03*
X174250000Y-115450000D03*
%TO.N,SDA*%
X159250000Y-103200000D03*
%TO.N,SCL*%
X163500000Y-99950000D03*
%TO.N,BOOT*%
X175192387Y-87007613D03*
X169200000Y-85700000D03*
%TO.N,/Motor Driver/IN2*%
X147662210Y-90350000D03*
X132209000Y-106851000D03*
%TO.N,/Motor Driver/IN1*%
X130295000Y-107495000D03*
X141700000Y-93200000D03*
%TO.N,SIG10*%
X165000000Y-99700000D03*
X171500000Y-103200000D03*
%TO.N,/Motor Driver1/IN2*%
X147700000Y-95200000D03*
X142000000Y-106700000D03*
%TO.N,/Motor Driver1/IN1*%
X141000000Y-106700000D03*
X149700000Y-97700000D03*
%TO.N,C+*%
X155700000Y-90200000D03*
X144200000Y-89700000D03*
%TO.N,/Motor Driver2/IN2*%
X118835000Y-106700000D03*
X141700000Y-91700000D03*
%TO.N,C-*%
X152385000Y-95885000D03*
X141885327Y-97085327D03*
%TO.N,/Motor Driver2/IN1*%
X132200000Y-97200000D03*
X117565000Y-106200000D03*
%TO.N,E+*%
X155250000Y-105287500D03*
X155700000Y-96700000D03*
%TO.N,E-*%
X155700000Y-98700000D03*
X153000000Y-105287500D03*
%TO.N,F+*%
X164662500Y-106200000D03*
X168750000Y-99450000D03*
%TO.N,F-*%
X169750000Y-96450000D03*
X159087500Y-106200000D03*
%TD*%
D50*
%TO.N,GND*%
X174540000Y-83940000D02*
X174700000Y-84100000D01*
X168920000Y-83940000D02*
X161200000Y-91660000D01*
D51*
X126250000Y-86450000D02*
X126250000Y-85450000D01*
X135120000Y-84425000D02*
X135570000Y-84425000D01*
D50*
X119055000Y-97080000D02*
X119175000Y-97200000D01*
D52*
X120662500Y-95712500D02*
X120662500Y-95200000D01*
D50*
X116180000Y-97080000D02*
X119055000Y-97080000D01*
X118772500Y-89560000D02*
X119000000Y-89787500D01*
X116180000Y-90135000D02*
X115605000Y-89560000D01*
X115605000Y-97655000D02*
X116180000Y-97080000D01*
D51*
X146200000Y-84370000D02*
X143255000Y-84370000D01*
X132950000Y-84425000D02*
X135120000Y-84425000D01*
D52*
X119175000Y-97200000D02*
X120662500Y-95712500D01*
D50*
X153950000Y-83940000D02*
X155100000Y-83940000D01*
D51*
X143255000Y-84370000D02*
X143200000Y-84425000D01*
D50*
X116180000Y-90680000D02*
X116180000Y-90135000D01*
X119162500Y-97212500D02*
X119175000Y-97200000D01*
D51*
X141187500Y-84412500D02*
X141200000Y-84425000D01*
D50*
X115605000Y-98200000D02*
X115605000Y-97655000D01*
X119162500Y-98930000D02*
X119162500Y-97212500D01*
X171450000Y-83940000D02*
X168920000Y-83940000D01*
D53*
X144574000Y-103226000D02*
X144700000Y-103100000D01*
D50*
X161200000Y-90040000D02*
X161200000Y-91660000D01*
D51*
X137637500Y-85975000D02*
X139200000Y-84412500D01*
X135570000Y-84425000D02*
X137120000Y-85975000D01*
D52*
X154700000Y-111387500D02*
X154337500Y-111387500D01*
D50*
X111425000Y-89560000D02*
X115605000Y-89560000D01*
D51*
X143200000Y-84425000D02*
X141200000Y-84425000D01*
D50*
X115605000Y-89560000D02*
X118772500Y-89560000D01*
D51*
X127275000Y-84425000D02*
X132950000Y-84425000D01*
X126250000Y-85450000D02*
X127275000Y-84425000D01*
D50*
X115605000Y-98200000D02*
X111425000Y-98200000D01*
X155100000Y-83940000D02*
X161200000Y-90040000D01*
X171450000Y-83940000D02*
X174540000Y-83940000D01*
D51*
X137120000Y-85975000D02*
X137637500Y-85975000D01*
X139200000Y-84412500D02*
X141187500Y-84412500D01*
D52*
%TO.N,Net-(BOOT1-A)*%
X173787500Y-89212500D02*
X174700000Y-88300000D01*
X173787500Y-90200000D02*
X173787500Y-89212500D01*
D53*
%TO.N,+12V*%
X169950000Y-113300000D02*
X168500000Y-111850000D01*
X156500000Y-107950000D02*
X157250000Y-107200000D01*
X138000000Y-106950000D02*
X140250000Y-104700000D01*
X157500000Y-104450000D02*
X157250000Y-104700000D01*
X133074000Y-108199156D02*
X134323156Y-106950000D01*
D51*
X129000000Y-95450000D02*
X129000000Y-98700000D01*
D53*
X157250000Y-107200000D02*
X157250000Y-104700000D01*
X112800000Y-102450000D02*
X112800000Y-101900000D01*
X112800000Y-101900000D02*
X114250000Y-100450000D01*
X145500000Y-106700000D02*
X146700000Y-106700000D01*
D51*
X124300000Y-97107500D02*
X127407500Y-97107500D01*
D53*
X156250000Y-103700000D02*
X150900000Y-103700000D01*
X166500000Y-104450000D02*
X157500000Y-104450000D01*
X150300000Y-101750000D02*
X148500000Y-99950000D01*
X117400000Y-103700000D02*
X121574000Y-107874000D01*
D51*
X133470000Y-93720000D02*
X130730000Y-93720000D01*
D53*
X140250000Y-104700000D02*
X140250000Y-104450000D01*
X134500000Y-115800000D02*
X133600000Y-115800000D01*
X110775000Y-115800000D02*
X111500000Y-115800000D01*
X140300000Y-104400000D02*
X140300000Y-103100000D01*
X140300000Y-103100000D02*
X136650000Y-99450000D01*
D52*
X124207500Y-97200000D02*
X124300000Y-97107500D01*
D53*
X148500000Y-99950000D02*
X137150000Y-99950000D01*
X168500000Y-111850000D02*
X168500000Y-106450000D01*
X158150000Y-116000000D02*
X157425000Y-116000000D01*
X133074000Y-115274000D02*
X133074000Y-108199156D01*
X150900000Y-103700000D02*
X150300000Y-103100000D01*
X121574000Y-107874000D02*
X121574000Y-115099000D01*
X156500000Y-115075000D02*
X156500000Y-107950000D01*
X145275000Y-115750000D02*
X144574000Y-115049000D01*
X133600000Y-115800000D02*
X133074000Y-115274000D01*
X150300000Y-103100000D02*
X150300000Y-101750000D01*
X127250000Y-100450000D02*
X129000000Y-98700000D01*
D52*
X120725000Y-97200000D02*
X124207500Y-97200000D01*
D53*
X144574000Y-107626000D02*
X145500000Y-106700000D01*
X129750000Y-99450000D02*
X129000000Y-98700000D01*
X146000000Y-115750000D02*
X145275000Y-115750000D01*
X144574000Y-115049000D02*
X144574000Y-107626000D01*
D51*
X127407500Y-97107500D02*
X129000000Y-98700000D01*
D53*
X168500000Y-106450000D02*
X166500000Y-104450000D01*
X157250000Y-104700000D02*
X156250000Y-103700000D01*
X112800000Y-102450000D02*
X111000000Y-102450000D01*
X114250000Y-100450000D02*
X127250000Y-100450000D01*
X121574000Y-115099000D02*
X122275000Y-115800000D01*
X109500000Y-103950000D02*
X109500000Y-114525000D01*
X157425000Y-116000000D02*
X156500000Y-115075000D01*
D51*
X130730000Y-93720000D02*
X129000000Y-95450000D01*
D53*
X134323156Y-106950000D02*
X138000000Y-106950000D01*
X140250000Y-104450000D02*
X140300000Y-104400000D01*
X111000000Y-102450000D02*
X109500000Y-103950000D01*
X137150000Y-99950000D02*
X136650000Y-99450000D01*
X122275000Y-115800000D02*
X123000000Y-115800000D01*
X146700000Y-106700000D02*
X150300000Y-103100000D01*
X109500000Y-114525000D02*
X110775000Y-115800000D01*
X136650000Y-99450000D02*
X129750000Y-99450000D01*
D52*
%TO.N,+3V3*%
X129500000Y-88700000D02*
X131501000Y-86699000D01*
X125280000Y-91420000D02*
X133470000Y-91420000D01*
X131501000Y-86699000D02*
X132226000Y-86699000D01*
X113624000Y-94253534D02*
X113624000Y-92576000D01*
X138194000Y-83351000D02*
X126599000Y-83351000D01*
X125000000Y-88700000D02*
X123000000Y-90700000D01*
X115180466Y-91950000D02*
X115650466Y-91480000D01*
X119326870Y-96280000D02*
X119750000Y-95856870D01*
X128750000Y-87950000D02*
X129500000Y-88700000D01*
X115650466Y-91480000D02*
X116180000Y-91480000D01*
X135475000Y-85975000D02*
X135120000Y-85975000D01*
X139770000Y-91420000D02*
X139770000Y-90270000D01*
X123000000Y-90700000D02*
X117500000Y-90700000D01*
X117500000Y-90700000D02*
X116720000Y-91480000D01*
X119750000Y-95856870D02*
X119750000Y-94325000D01*
X128750000Y-86450000D02*
X128750000Y-87950000D01*
X151122500Y-85210000D02*
X153950000Y-85210000D01*
X124750000Y-88450000D02*
X125000000Y-88700000D01*
X124750000Y-85200000D02*
X124750000Y-88450000D01*
X119750000Y-94325000D02*
X120375000Y-93700000D01*
X120375000Y-93700000D02*
X123000000Y-93700000D01*
X132950000Y-85975000D02*
X135120000Y-85975000D01*
X123000000Y-93700000D02*
X125280000Y-91420000D01*
X113624000Y-92576000D02*
X114250000Y-91950000D01*
X137120000Y-84425000D02*
X138194000Y-83351000D01*
X138194000Y-83351000D02*
X149263500Y-83351000D01*
X116720000Y-91480000D02*
X116180000Y-91480000D01*
X150200000Y-84287500D02*
X151122500Y-85210000D01*
X132226000Y-86699000D02*
X132950000Y-85975000D01*
X114250000Y-91950000D02*
X115180466Y-91950000D01*
X116180000Y-96280000D02*
X115650466Y-96280000D01*
X115650466Y-96280000D02*
X113624000Y-94253534D01*
X116180000Y-96280000D02*
X119326870Y-96280000D01*
X129500000Y-88700000D02*
X125000000Y-88700000D01*
X139770000Y-90270000D02*
X135475000Y-85975000D01*
X149263500Y-83351000D02*
X150200000Y-84287500D01*
X126599000Y-83351000D02*
X124750000Y-85200000D01*
%TO.N,EN*%
X146200000Y-88570000D02*
X148657500Y-86112500D01*
X151112500Y-86112500D02*
X151480000Y-86480000D01*
X148657500Y-86112500D02*
X150200000Y-86112500D01*
X151480000Y-86480000D02*
X153950000Y-86480000D01*
X143605000Y-85975000D02*
X146200000Y-88570000D01*
X143200000Y-85975000D02*
X143605000Y-85975000D01*
X141200000Y-85975000D02*
X143200000Y-85975000D01*
X150567500Y-86480000D02*
X150200000Y-86112500D01*
X150200000Y-86112500D02*
X151112500Y-86112500D01*
%TO.N,/Motor Driver/VREF*%
X125482500Y-108900000D02*
X125500000Y-108917500D01*
X127895000Y-109555000D02*
X126750000Y-110700000D01*
X126750000Y-110700000D02*
X126750000Y-112707500D01*
X126750000Y-112707500D02*
X125500000Y-113957500D01*
X123000000Y-108900000D02*
X125482500Y-108900000D01*
X125500000Y-108917500D02*
X127337500Y-108917500D01*
X127895000Y-109475000D02*
X127895000Y-109555000D01*
X127337500Y-108917500D02*
X127895000Y-109475000D01*
%TO.N,Net-(D1-A)*%
X120737500Y-98930000D02*
X124297500Y-98930000D01*
X124297500Y-98930000D02*
X124300000Y-98932500D01*
%TO.N,D-*%
X136700000Y-93700000D02*
X136700000Y-88200000D01*
X136700000Y-88200000D02*
X135700000Y-87200000D01*
X135700000Y-87200000D02*
X131750000Y-87200000D01*
X122000000Y-92700000D02*
X118750000Y-92700000D01*
X114125000Y-93575000D02*
X114570000Y-93130000D01*
X149700000Y-98700000D02*
X145200000Y-94200000D01*
X153450000Y-99180000D02*
X152970000Y-98700000D01*
X131750000Y-87200000D02*
X129660000Y-89290000D01*
X125410000Y-89290000D02*
X122000000Y-92700000D01*
X118320000Y-93130000D02*
X116180000Y-93130000D01*
X129660000Y-89290000D02*
X125410000Y-89290000D01*
X116180000Y-94130000D02*
X114680000Y-94130000D01*
X118750000Y-92700000D02*
X118320000Y-93130000D01*
X114570000Y-93130000D02*
X116180000Y-93130000D01*
X137200000Y-94200000D02*
X136700000Y-93700000D01*
X145200000Y-94200000D02*
X137200000Y-94200000D01*
X114680000Y-94130000D02*
X114125000Y-93575000D01*
X152970000Y-98700000D02*
X149700000Y-98700000D01*
%TO.N,D+*%
X117000000Y-94630000D02*
X118000000Y-93630000D01*
X136991479Y-94700000D02*
X144700000Y-94700000D01*
X136199000Y-93907521D02*
X136991479Y-94700000D01*
X116180000Y-94630000D02*
X117000000Y-94630000D01*
X147351000Y-97351000D02*
X149200000Y-99200000D01*
X130160000Y-89790000D02*
X132250000Y-87700000D01*
X132250000Y-87700000D02*
X135200000Y-87700000D01*
X119070000Y-93630000D02*
X118000000Y-93630000D01*
X144700000Y-94700000D02*
X146999000Y-96999000D01*
X118000000Y-93630000D02*
X116180000Y-93630000D01*
X119500000Y-93200000D02*
X122500000Y-93200000D01*
X146999000Y-96999000D02*
X147005870Y-96999000D01*
X147351000Y-97344130D02*
X147351000Y-97351000D01*
X136199000Y-88699000D02*
X136199000Y-93907521D01*
X135200000Y-87700000D02*
X136199000Y-88699000D01*
X152950000Y-100450000D02*
X153950000Y-100450000D01*
X122500000Y-93200000D02*
X125910000Y-89790000D01*
X125910000Y-89790000D02*
X130160000Y-89790000D01*
X119070000Y-93630000D02*
X119500000Y-93200000D01*
X147005870Y-96999000D02*
X147351000Y-97344130D01*
X151700000Y-99200000D02*
X152950000Y-100450000D01*
X149200000Y-99200000D02*
X151700000Y-99200000D01*
%TO.N,SDA*%
X159525000Y-102925000D02*
X159525000Y-101700000D01*
X159250000Y-103200000D02*
X159525000Y-102925000D01*
%TO.N,SCL*%
X160795000Y-100650000D02*
X161495000Y-99950000D01*
X161495000Y-99950000D02*
X163500000Y-99950000D01*
X160795000Y-101700000D02*
X160795000Y-100650000D01*
%TO.N,BOOT*%
X168000000Y-86900000D02*
X168000000Y-99700000D01*
X169200000Y-85700000D02*
X168000000Y-86900000D01*
X175192387Y-87007613D02*
X175599093Y-87007613D01*
X168000000Y-99700000D02*
X168750000Y-100450000D01*
X175599093Y-87007613D02*
X176499000Y-87907520D01*
X176499000Y-89313500D02*
X175612500Y-90200000D01*
X176499000Y-87907520D02*
X176499000Y-89313500D01*
X168750000Y-100450000D02*
X171450000Y-100450000D01*
%TO.N,Led*%
X151632500Y-87750000D02*
X151112500Y-88270000D01*
X151362500Y-87750000D02*
X151112500Y-88000000D01*
X153950000Y-87750000D02*
X151632500Y-87750000D01*
D51*
%TO.N,/Motor Driver/ISEN*%
X130435000Y-115225000D02*
X130435000Y-117772500D01*
X130435000Y-117772500D02*
X130500000Y-117837500D01*
D52*
%TO.N,/Motor Driver/IN2*%
X130435000Y-108625000D02*
X130435000Y-109475000D01*
X147812210Y-90200000D02*
X149287500Y-90200000D01*
X147662210Y-90350000D02*
X147812210Y-90200000D01*
X132209000Y-106851000D02*
X130435000Y-108625000D01*
%TO.N,/Motor Driver/IN1*%
X149287500Y-92200000D02*
X142700000Y-92200000D01*
X142700000Y-92200000D02*
X141700000Y-93200000D01*
X130295000Y-107495000D02*
X129165000Y-108625000D01*
X129165000Y-108625000D02*
X129165000Y-109475000D01*
%TO.N,SIG1*%
X173220000Y-86480000D02*
X171450000Y-86480000D01*
X173651000Y-86049000D02*
X173220000Y-86480000D01*
X177000000Y-90587500D02*
X177000000Y-87450000D01*
X175087500Y-92500000D02*
X177000000Y-90587500D01*
X177000000Y-87450000D02*
X175599000Y-86049000D01*
X175599000Y-86049000D02*
X173651000Y-86049000D01*
X175087500Y-93200000D02*
X175087500Y-92500000D01*
%TO.N,SIG2*%
X177500000Y-91043130D02*
X176000000Y-92543130D01*
X175510000Y-85210000D02*
X177500000Y-87200000D01*
X176000000Y-94287500D02*
X175087500Y-95200000D01*
X177500000Y-87200000D02*
X177500000Y-91043130D01*
X176000000Y-92543130D02*
X176000000Y-94287500D01*
X171450000Y-85210000D02*
X175510000Y-85210000D01*
%TO.N,SIG3*%
X175087500Y-97200000D02*
X174002000Y-96114500D01*
X174002000Y-96114500D02*
X174002000Y-92210000D01*
X172082000Y-90290000D02*
X171450000Y-90290000D01*
X174002000Y-92210000D02*
X172082000Y-90290000D01*
%TO.N,SIG4*%
X173501000Y-97613500D02*
X173501000Y-92979000D01*
X172082000Y-91560000D02*
X171450000Y-91560000D01*
X175087500Y-99200000D02*
X173501000Y-97613500D01*
X173501000Y-92979000D02*
X172082000Y-91560000D01*
%TO.N,SIG5*%
X173000000Y-99112500D02*
X175087500Y-101200000D01*
X171450000Y-92830000D02*
X172130000Y-92830000D01*
X173000000Y-93700000D02*
X173000000Y-99112500D01*
X172130000Y-92830000D02*
X173000000Y-93700000D01*
%TO.N,SIG6*%
X173587500Y-101700000D02*
X175087500Y-103200000D01*
X169685000Y-101700000D02*
X173587500Y-101700000D01*
%TO.N,SIG7*%
X168415000Y-101700000D02*
X168415000Y-102332000D01*
X169033000Y-102950000D02*
X170500000Y-102950000D01*
X170500000Y-102950000D02*
X171000000Y-102450000D01*
X168415000Y-102332000D02*
X169033000Y-102950000D01*
X171000000Y-102450000D02*
X172337500Y-102450000D01*
X172337500Y-102450000D02*
X175087500Y-105200000D01*
%TO.N,SIG8*%
X169500000Y-104700000D02*
X170087500Y-104700000D01*
X167145000Y-101700000D02*
X167145000Y-102345000D01*
X167145000Y-102345000D02*
X169500000Y-104700000D01*
%TO.N,SIG9*%
X165875000Y-101700000D02*
X165875000Y-102487500D01*
X165875000Y-102487500D02*
X170087500Y-106700000D01*
%TO.N,SIG10*%
X170087500Y-108700000D02*
X171049000Y-107738500D01*
X164605000Y-100095000D02*
X165000000Y-99700000D01*
X171049000Y-103651000D02*
X171500000Y-103200000D01*
X164605000Y-101700000D02*
X164605000Y-100095000D01*
X171049000Y-107738500D02*
X171049000Y-103651000D01*
X164605000Y-101700000D02*
X164605000Y-102305000D01*
%TO.N,Net-(D2-A)*%
X144200000Y-88200000D02*
X144200000Y-88700000D01*
X139200000Y-86700000D02*
X139700000Y-87200000D01*
X143200000Y-87200000D02*
X144200000Y-88200000D01*
X147857500Y-89700000D02*
X149287500Y-88270000D01*
X139200000Y-85987500D02*
X139200000Y-86700000D01*
X145200000Y-89700000D02*
X147857500Y-89700000D01*
X144200000Y-88700000D02*
X145200000Y-89700000D01*
X139700000Y-87200000D02*
X143200000Y-87200000D01*
%TO.N,A+*%
X153450000Y-89020000D02*
X152292500Y-89020000D01*
X152292500Y-89020000D02*
X151112500Y-90200000D01*
%TO.N,A-*%
X151112500Y-92200000D02*
X153022500Y-90290000D01*
X153022500Y-90290000D02*
X153950000Y-90290000D01*
%TO.N,/Motor Driver1/VREF*%
X136962500Y-108850000D02*
X137000000Y-108887500D01*
X138250000Y-110620000D02*
X139395000Y-109475000D01*
X137000000Y-113957500D02*
X138250000Y-112707500D01*
X138807500Y-108887500D02*
X139395000Y-109475000D01*
X138250000Y-112707500D02*
X138250000Y-110620000D01*
X134500000Y-108850000D02*
X136962500Y-108850000D01*
X137000000Y-108887500D02*
X138807500Y-108887500D01*
D51*
%TO.N,/Motor Driver1/ISEN*%
X141935000Y-115225000D02*
X141935000Y-117172500D01*
X141935000Y-117172500D02*
X142500000Y-117737500D01*
D52*
%TO.N,/Motor Driver1/IN2*%
X148700000Y-94200000D02*
X147700000Y-95200000D01*
X141935000Y-106765000D02*
X142000000Y-106700000D01*
X149287500Y-94200000D02*
X148700000Y-94200000D01*
X141935000Y-109475000D02*
X141935000Y-106765000D01*
%TO.N,/Motor Driver1/IN1*%
X149700000Y-96612500D02*
X149287500Y-96200000D01*
X140665000Y-109475000D02*
X140665000Y-107035000D01*
X149700000Y-97700000D02*
X149700000Y-96612500D01*
X140665000Y-107035000D02*
X141000000Y-106700000D01*
%TO.N,B+*%
X153950000Y-91560000D02*
X152818000Y-91560000D01*
X151976000Y-93336500D02*
X151112500Y-94200000D01*
X151976000Y-92402000D02*
X151976000Y-93336500D01*
X152818000Y-91560000D02*
X151976000Y-92402000D01*
%TO.N,B-*%
X153950000Y-92830000D02*
X153191020Y-92830000D01*
X151976000Y-95336500D02*
X151112500Y-96200000D01*
X153191020Y-92830000D02*
X151976000Y-94045020D01*
X151976000Y-94045020D02*
X151976000Y-95336500D01*
%TO.N,/Motor Driver2/VREF*%
X114000000Y-108917500D02*
X115737500Y-108917500D01*
X115250000Y-110520000D02*
X116295000Y-109475000D01*
X114000000Y-113957500D02*
X115250000Y-112707500D01*
X111500000Y-108900000D02*
X113982500Y-108900000D01*
X115737500Y-108917500D02*
X116295000Y-109475000D01*
X115250000Y-112707500D02*
X115250000Y-110520000D01*
X113982500Y-108900000D02*
X114000000Y-108917500D01*
D50*
%TO.N,Net-(J1-Pin_4)*%
X176912500Y-105200000D02*
X179140000Y-105200000D01*
X179140000Y-105200000D02*
X180000000Y-106060000D01*
%TO.N,Net-(J1-Pin_6)*%
X179860000Y-101200000D02*
X180000000Y-101060000D01*
X176912500Y-101200000D02*
X179860000Y-101200000D01*
%TO.N,Net-(J1-Pin_7)*%
X176912500Y-99200000D02*
X179360000Y-99200000D01*
X179360000Y-99200000D02*
X180000000Y-98560000D01*
%TO.N,Net-(J1-Pin_3)*%
X178140000Y-106700000D02*
X180000000Y-108560000D01*
X173912500Y-106700000D02*
X178140000Y-106700000D01*
X171912500Y-104700000D02*
X173912500Y-106700000D01*
%TO.N,Net-(J1-Pin_2)*%
X171912500Y-106700000D02*
X172912500Y-107700000D01*
X176640000Y-107700000D02*
X180000000Y-111060000D01*
X172912500Y-107700000D02*
X176640000Y-107700000D01*
%TO.N,Net-(J1-Pin_9)*%
X176912500Y-95200000D02*
X178360000Y-95200000D01*
X178360000Y-95200000D02*
X180000000Y-93560000D01*
%TO.N,Net-(J1-Pin_5)*%
X176912500Y-103200000D02*
X179640000Y-103200000D01*
X179640000Y-103200000D02*
X180000000Y-103560000D01*
%TO.N,Net-(J1-Pin_8)*%
X178860000Y-97200000D02*
X180000000Y-96060000D01*
X176912500Y-97200000D02*
X178860000Y-97200000D01*
%TO.N,Net-(J1-Pin_1)*%
X175140000Y-108700000D02*
X171912500Y-108700000D01*
X175140000Y-108700000D02*
X180000000Y-113560000D01*
%TO.N,Net-(J1-Pin_10)*%
X180000000Y-91060000D02*
X179052500Y-91060000D01*
X179052500Y-91060000D02*
X176912500Y-93200000D01*
D52*
%TO.N,Net-(J5-CC2)*%
X118930000Y-95630000D02*
X116180000Y-95630000D01*
%TO.N,Net-(J5-CC1)*%
X117982500Y-92630000D02*
X119000000Y-91612500D01*
X116180000Y-92630000D02*
X117982500Y-92630000D01*
D51*
%TO.N,/Motor Driver2/ISEN*%
X118835000Y-117672500D02*
X119000000Y-117837500D01*
X118835000Y-115225000D02*
X118835000Y-117672500D01*
D52*
%TO.N,C+*%
X153950000Y-94100000D02*
X155000000Y-94100000D01*
X142200000Y-88512500D02*
X143012500Y-88512500D01*
X143012500Y-88512500D02*
X144200000Y-89700000D01*
X155000000Y-94100000D02*
X155700000Y-93400000D01*
X155700000Y-93400000D02*
X155700000Y-90200000D01*
%TO.N,/Motor Driver2/IN2*%
X142200000Y-90337500D02*
X142200000Y-91200000D01*
X142200000Y-91200000D02*
X141700000Y-91700000D01*
X118835000Y-106700000D02*
X118835000Y-109475000D01*
%TO.N,C-*%
X136200000Y-97700000D02*
X135700000Y-97200000D01*
X152900000Y-95370000D02*
X153950000Y-95370000D01*
X135700000Y-97200000D02*
X135612500Y-97200000D01*
X152385000Y-95885000D02*
X152900000Y-95370000D01*
X141885327Y-97085327D02*
X141270654Y-97700000D01*
X141270654Y-97700000D02*
X136200000Y-97700000D01*
%TO.N,/Motor Driver2/IN1*%
X133787500Y-97200000D02*
X132200000Y-97200000D01*
X117565000Y-106200000D02*
X117565000Y-109475000D01*
%TO.N,/Motor Driver3/VREF*%
X150107500Y-108887500D02*
X150895000Y-109675000D01*
X148500000Y-108887500D02*
X150107500Y-108887500D01*
X148462500Y-108850000D02*
X148500000Y-108887500D01*
X148500000Y-113450000D02*
X149750000Y-112200000D01*
X148500000Y-113887500D02*
X148500000Y-113450000D01*
X149750000Y-110820000D02*
X150895000Y-109675000D01*
X146000000Y-108850000D02*
X148462500Y-108850000D01*
X149750000Y-112200000D02*
X149750000Y-110820000D01*
D51*
%TO.N,/Motor Driver3/ISEN*%
X153435000Y-117772500D02*
X153500000Y-117837500D01*
X153435000Y-115425000D02*
X153435000Y-117772500D01*
D52*
%TO.N,/Motor Driver3/IN2*%
X153435000Y-109675000D02*
X153435000Y-108765000D01*
X153435000Y-108927500D02*
X155250000Y-107112500D01*
X153435000Y-109675000D02*
X153435000Y-108927500D01*
%TO.N,E+*%
X154010000Y-96700000D02*
X153950000Y-96640000D01*
X155700000Y-96700000D02*
X154010000Y-96700000D01*
%TO.N,/Motor Driver3/IN1*%
X152165000Y-109675000D02*
X152165000Y-107947500D01*
X152165000Y-107947500D02*
X153000000Y-107112500D01*
%TO.N,E-*%
X154910000Y-97910000D02*
X153950000Y-97910000D01*
X155700000Y-98700000D02*
X154910000Y-97910000D01*
%TO.N,/Motor Driver4/VREF*%
X161900000Y-110820000D02*
X163045000Y-109675000D01*
X161900000Y-112907500D02*
X161900000Y-110820000D01*
X158150000Y-109080000D02*
X160592500Y-109080000D01*
X160650000Y-114157500D02*
X161900000Y-112907500D01*
X162507500Y-109137500D02*
X163045000Y-109675000D01*
X160650000Y-109137500D02*
X162507500Y-109137500D01*
X160592500Y-109080000D02*
X160650000Y-109137500D01*
D51*
%TO.N,/Motor Driver4/ISEN*%
X165585000Y-117715000D02*
X165500000Y-117800000D01*
X165585000Y-115425000D02*
X165585000Y-117715000D01*
D52*
%TO.N,/Motor Driver4/IN2*%
X165585000Y-108825000D02*
X162960000Y-106200000D01*
X162960000Y-106200000D02*
X162837500Y-106200000D01*
X165585000Y-109675000D02*
X165585000Y-108825000D01*
%TO.N,F+*%
X169034620Y-99165380D02*
X169034620Y-95665380D01*
X170600000Y-94100000D02*
X171450000Y-94100000D01*
X169034620Y-95665380D02*
X170600000Y-94100000D01*
X168750000Y-99450000D02*
X169034620Y-99165380D01*
%TO.N,F-*%
X169750000Y-96450000D02*
X170830000Y-95370000D01*
X170830000Y-95370000D02*
X171450000Y-95370000D01*
%TO.N,/Motor Driver4/IN1*%
X161963500Y-107251000D02*
X160912500Y-106200000D01*
X162741000Y-107251000D02*
X161963500Y-107251000D01*
X164315000Y-108825000D02*
X162741000Y-107251000D01*
X164315000Y-109675000D02*
X164315000Y-108825000D01*
%TD*%
%TA.AperFunction,Conductor*%
%TO.N,GND*%
G36*
X167193039Y-108719685D02*
G01*
X167238794Y-108772489D01*
X167250000Y-108824000D01*
X167250000Y-113576000D01*
X167230315Y-113643039D01*
X167177511Y-113688794D01*
X167126000Y-113700000D01*
X163374000Y-113700000D01*
X163306961Y-113680315D01*
X163261206Y-113627511D01*
X163250000Y-113576000D01*
X163250000Y-111574000D01*
X163269685Y-111506961D01*
X163322489Y-111461206D01*
X163374000Y-111450000D01*
X166500000Y-111450000D01*
X166500000Y-108824000D01*
X166519685Y-108756961D01*
X166572489Y-108711206D01*
X166624000Y-108700000D01*
X167126000Y-108700000D01*
X167193039Y-108719685D01*
G37*
%TD.AperFunction*%
%TD*%
%TA.AperFunction,Conductor*%
%TO.N,GND*%
G36*
X155193039Y-108719685D02*
G01*
X155238794Y-108772489D01*
X155250000Y-108824000D01*
X155250000Y-113576000D01*
X155230315Y-113643039D01*
X155177511Y-113688794D01*
X155126000Y-113700000D01*
X151124000Y-113700000D01*
X151056961Y-113680315D01*
X151011206Y-113627511D01*
X151000000Y-113576000D01*
X151000000Y-111574000D01*
X151019685Y-111506961D01*
X151072489Y-111461206D01*
X151124000Y-111450000D01*
X154250000Y-111450000D01*
X154250000Y-108824000D01*
X154269685Y-108756961D01*
X154322489Y-108711206D01*
X154374000Y-108700000D01*
X155126000Y-108700000D01*
X155193039Y-108719685D01*
G37*
%TD.AperFunction*%
%TD*%
%TA.AperFunction,Conductor*%
%TO.N,+12V*%
G36*
X128443039Y-114969685D02*
G01*
X128488794Y-115022489D01*
X128500000Y-115074000D01*
X128500000Y-116461214D01*
X128497028Y-116473803D01*
X128498040Y-116483176D01*
X128486909Y-116516668D01*
X128429516Y-116631454D01*
X128381929Y-116682613D01*
X128318607Y-116700000D01*
X121874000Y-116700000D01*
X121806961Y-116680315D01*
X121761206Y-116627511D01*
X121750000Y-116576000D01*
X121750000Y-115074000D01*
X121769685Y-115006961D01*
X121822489Y-114961206D01*
X121874000Y-114950000D01*
X128376000Y-114950000D01*
X128443039Y-114969685D01*
G37*
%TD.AperFunction*%
%TD*%
%TA.AperFunction,Conductor*%
%TO.N,GND*%
G36*
X167070898Y-118719685D02*
G01*
X167116653Y-118772489D01*
X167124157Y-118793925D01*
X167246298Y-119282487D01*
X167250000Y-119312562D01*
X167250000Y-121780028D01*
X167243637Y-121819240D01*
X167144980Y-122115212D01*
X167105106Y-122172587D01*
X167040542Y-122199295D01*
X167027343Y-122200000D01*
X163874000Y-122200000D01*
X163806961Y-122180315D01*
X163761206Y-122127511D01*
X163750000Y-122076000D01*
X163750000Y-119619967D01*
X163756362Y-119580758D01*
X164021686Y-118784785D01*
X164061559Y-118727413D01*
X164126123Y-118700705D01*
X164139322Y-118700000D01*
X167003859Y-118700000D01*
X167070898Y-118719685D01*
G37*
%TD.AperFunction*%
%TD*%
%TA.AperFunction,Conductor*%
%TO.N,GND*%
G36*
X161675138Y-109969685D02*
G01*
X161720893Y-110022489D01*
X161732099Y-110074000D01*
X161732099Y-110440857D01*
X161712414Y-110507896D01*
X161695780Y-110528538D01*
X161619531Y-110604786D01*
X161619527Y-110604791D01*
X161573387Y-110684709D01*
X161573386Y-110684712D01*
X161549500Y-110773856D01*
X161549500Y-112576000D01*
X161529815Y-112643039D01*
X161477011Y-112688794D01*
X161425500Y-112700000D01*
X159482099Y-112700000D01*
X159482099Y-114576000D01*
X159462414Y-114643039D01*
X159409610Y-114688794D01*
X159358099Y-114700000D01*
X157606099Y-114700000D01*
X157539060Y-114680315D01*
X157493305Y-114627511D01*
X157482099Y-114576000D01*
X157482099Y-110074000D01*
X157501784Y-110006961D01*
X157554588Y-109961206D01*
X157606099Y-109950000D01*
X161608099Y-109950000D01*
X161675138Y-109969685D01*
G37*
%TD.AperFunction*%
%TD*%
%TA.AperFunction,Conductor*%
%TO.N,/Motor Driver2/M2*%
G36*
X120490403Y-114719685D02*
G01*
X120534273Y-114768546D01*
X120996058Y-115692116D01*
X121002786Y-115708358D01*
X121250000Y-116450001D01*
X121250001Y-116450002D01*
X121742573Y-117435147D01*
X121753256Y-117466283D01*
X122000000Y-118700000D01*
X122247592Y-119937960D01*
X122250000Y-119962278D01*
X122250000Y-122929877D01*
X122243637Y-122969089D01*
X121759256Y-124422230D01*
X121729300Y-124470699D01*
X121264229Y-124935771D01*
X121232002Y-124958999D01*
X120776182Y-125186909D01*
X120720728Y-125200000D01*
X120051362Y-125200000D01*
X119984323Y-125180315D01*
X119963681Y-125163681D01*
X119774287Y-124974287D01*
X119741670Y-124916680D01*
X119625000Y-124450000D01*
X119508757Y-123985028D01*
X119511417Y-123915746D01*
X119740744Y-123227766D01*
X119770697Y-123179302D01*
X121000000Y-121950000D01*
X121000000Y-119450000D01*
X120750000Y-118700000D01*
X120253942Y-117707884D01*
X120247214Y-117691642D01*
X119756363Y-116219089D01*
X119750000Y-116179877D01*
X119750000Y-114824000D01*
X119769685Y-114756961D01*
X119822489Y-114711206D01*
X119874000Y-114700000D01*
X120423364Y-114700000D01*
X120490403Y-114719685D01*
G37*
%TD.AperFunction*%
%TD*%
%TA.AperFunction,Conductor*%
%TO.N,GND*%
G36*
X155135647Y-118719685D02*
G01*
X155179517Y-118768546D01*
X155226980Y-118863471D01*
X155235101Y-118879713D01*
X155236909Y-118883330D01*
X155250000Y-118938784D01*
X155250000Y-121780028D01*
X155243637Y-121819240D01*
X155144980Y-122115212D01*
X155105106Y-122172587D01*
X155040542Y-122199295D01*
X155027343Y-122200000D01*
X151931391Y-122200000D01*
X151916343Y-122195581D01*
X151900670Y-122196134D01*
X151883504Y-122185938D01*
X151864352Y-122180315D01*
X151853287Y-122167991D01*
X151840598Y-122160455D01*
X151820482Y-122131454D01*
X151763091Y-122016671D01*
X151750000Y-121961217D01*
X151750000Y-120010120D01*
X151752408Y-119985802D01*
X151818613Y-119654779D01*
X151942853Y-119033573D01*
X151953536Y-119002438D01*
X152070482Y-118768546D01*
X152118069Y-118717387D01*
X152181391Y-118700000D01*
X155068608Y-118700000D01*
X155135647Y-118719685D01*
G37*
%TD.AperFunction*%
%TD*%
%TA.AperFunction,Conductor*%
%TO.N,/Motor Driver3/M1*%
G36*
X152693039Y-114969685D02*
G01*
X152738794Y-115022489D01*
X152750000Y-115074000D01*
X152750000Y-116420728D01*
X152736909Y-116476182D01*
X152500001Y-116949997D01*
X152500000Y-116949998D01*
X152250000Y-117700000D01*
X152002786Y-118441641D01*
X151996058Y-118457883D01*
X151750001Y-118949996D01*
X151749999Y-118950001D01*
X151500000Y-120199999D01*
X151500000Y-121950001D01*
X151749999Y-122450000D01*
X152720546Y-122935273D01*
X152768266Y-122977399D01*
X153229174Y-123668761D01*
X153249982Y-123735460D01*
X153250000Y-123737544D01*
X153250000Y-124848344D01*
X153230315Y-124915383D01*
X153177511Y-124961138D01*
X153150318Y-124969936D01*
X152065073Y-125186985D01*
X151995475Y-125180830D01*
X151953074Y-125153074D01*
X150776548Y-123976548D01*
X150743063Y-123915225D01*
X150742637Y-123913185D01*
X150500393Y-122701965D01*
X150499672Y-122698032D01*
X150251687Y-121210122D01*
X150250000Y-121189737D01*
X150250000Y-120715266D01*
X150253702Y-120685192D01*
X150498845Y-119704620D01*
X150501506Y-119695482D01*
X150747214Y-118958358D01*
X150753942Y-118942116D01*
X151250000Y-117950000D01*
X151250000Y-117949999D01*
X151750000Y-116949999D01*
X151750000Y-115074000D01*
X151769685Y-115006961D01*
X151822489Y-114961206D01*
X151874000Y-114950000D01*
X152626000Y-114950000D01*
X152693039Y-114969685D01*
G37*
%TD.AperFunction*%
%TD*%
%TA.AperFunction,Conductor*%
%TO.N,/Motor Driver4/M2*%
G36*
X167193039Y-114969685D02*
G01*
X167238794Y-115022489D01*
X167250000Y-115074000D01*
X167250000Y-115950000D01*
X167994888Y-117191480D01*
X168003690Y-117209225D01*
X168494069Y-118435174D01*
X168501980Y-118465846D01*
X168749042Y-120442336D01*
X168750000Y-120457716D01*
X168750000Y-122184734D01*
X168746298Y-122214808D01*
X168508330Y-123166680D01*
X168475713Y-123224287D01*
X167756233Y-123943767D01*
X167742952Y-123955286D01*
X166752752Y-124697936D01*
X166747135Y-124701910D01*
X166031239Y-125179174D01*
X165964540Y-125199982D01*
X165962456Y-125200000D01*
X165566363Y-125200000D01*
X165499324Y-125180315D01*
X165463189Y-125144783D01*
X165020826Y-124481239D01*
X165000018Y-124414540D01*
X165000000Y-124412456D01*
X165000000Y-123751362D01*
X165019685Y-123684323D01*
X165036319Y-123663681D01*
X165485771Y-123214229D01*
X165517994Y-123191002D01*
X165992132Y-122953933D01*
X166008345Y-122947218D01*
X166750000Y-122700000D01*
X167250000Y-122450000D01*
X167500000Y-121700000D01*
X167500000Y-120950000D01*
X167500000Y-119450000D01*
X167250000Y-118450000D01*
X167000000Y-117700000D01*
X166750000Y-117200000D01*
X166513091Y-116726182D01*
X166500000Y-116670728D01*
X166500000Y-115074000D01*
X166519685Y-115006961D01*
X166572489Y-114961206D01*
X166624000Y-114950000D01*
X167126000Y-114950000D01*
X167193039Y-114969685D01*
G37*
%TD.AperFunction*%
%TD*%
%TA.AperFunction,Conductor*%
%TO.N,GND*%
G36*
X149443039Y-109969685D02*
G01*
X149488794Y-110022489D01*
X149500000Y-110074000D01*
X149500000Y-110522986D01*
X149480315Y-110590025D01*
X149474376Y-110598472D01*
X149469529Y-110604787D01*
X149423387Y-110684709D01*
X149423386Y-110684712D01*
X149399500Y-110773856D01*
X149399500Y-112003456D01*
X149379815Y-112070495D01*
X149363181Y-112091137D01*
X149040637Y-112413681D01*
X148979314Y-112447166D01*
X148952956Y-112450000D01*
X147250000Y-112450000D01*
X147250000Y-114576000D01*
X147230315Y-114643039D01*
X147177511Y-114688794D01*
X147126000Y-114700000D01*
X145398500Y-114700000D01*
X145331461Y-114680315D01*
X145285706Y-114627511D01*
X145274500Y-114576000D01*
X145274500Y-110074000D01*
X145294185Y-110006961D01*
X145346989Y-109961206D01*
X145398500Y-109950000D01*
X149376000Y-109950000D01*
X149443039Y-109969685D01*
G37*
%TD.AperFunction*%
%TD*%
%TA.AperFunction,Conductor*%
%TO.N,+12V*%
G36*
X151443039Y-114969685D02*
G01*
X151488794Y-115022489D01*
X151500000Y-115074000D01*
X151500000Y-116576000D01*
X151480315Y-116643039D01*
X151427511Y-116688794D01*
X151376000Y-116700000D01*
X144943875Y-116700000D01*
X144939547Y-116698729D01*
X144935140Y-116699692D01*
X144906324Y-116688973D01*
X144876836Y-116680315D01*
X144872698Y-116676466D01*
X144869654Y-116675334D01*
X144844674Y-116650399D01*
X144774799Y-116557231D01*
X144750324Y-116491789D01*
X144750000Y-116482832D01*
X144750000Y-115074000D01*
X144769685Y-115006961D01*
X144822489Y-114961206D01*
X144874000Y-114950000D01*
X151376000Y-114950000D01*
X151443039Y-114969685D01*
G37*
%TD.AperFunction*%
%TD*%
%TA.AperFunction,Conductor*%
%TO.N,GND*%
G36*
X126443039Y-109969685D02*
G01*
X126488794Y-110022489D01*
X126500000Y-110074000D01*
X126500000Y-110402986D01*
X126480315Y-110470025D01*
X126474376Y-110478472D01*
X126469529Y-110484787D01*
X126423387Y-110564709D01*
X126423386Y-110564712D01*
X126399500Y-110653856D01*
X126399500Y-112326000D01*
X126379815Y-112393039D01*
X126327011Y-112438794D01*
X126275500Y-112450000D01*
X124250000Y-112450000D01*
X124250000Y-114576000D01*
X124230315Y-114643039D01*
X124177511Y-114688794D01*
X124126000Y-114700000D01*
X122624000Y-114700000D01*
X122556961Y-114680315D01*
X122511206Y-114627511D01*
X122500000Y-114576000D01*
X122500000Y-110074000D01*
X122519685Y-110006961D01*
X122572489Y-109961206D01*
X122624000Y-109950000D01*
X126376000Y-109950000D01*
X126443039Y-109969685D01*
G37*
%TD.AperFunction*%
%TD*%
%TA.AperFunction,Conductor*%
%TO.N,/Motor Driver1/M2*%
G36*
X143693039Y-114719685D02*
G01*
X143738794Y-114772489D01*
X143750000Y-114824000D01*
X143750000Y-115700000D01*
X144243767Y-116193767D01*
X144255286Y-116207048D01*
X144993292Y-117191056D01*
X145005001Y-117210002D01*
X145492573Y-118185147D01*
X145503256Y-118216283D01*
X145747592Y-119437960D01*
X145750000Y-119462278D01*
X145750000Y-120937722D01*
X145747592Y-120962040D01*
X145500580Y-122197100D01*
X145499286Y-122202856D01*
X145376703Y-122693190D01*
X145253301Y-123186796D01*
X145243913Y-123212173D01*
X145125000Y-123450000D01*
X144525505Y-124648989D01*
X144477918Y-124700147D01*
X144444670Y-124713832D01*
X143553215Y-124936696D01*
X143483403Y-124933858D01*
X143454358Y-124919572D01*
X142805217Y-124486811D01*
X142760356Y-124433246D01*
X142750000Y-124383637D01*
X142750000Y-123501362D01*
X142769685Y-123434323D01*
X142786319Y-123413681D01*
X143013204Y-123186796D01*
X143491321Y-122708678D01*
X143510209Y-122693193D01*
X144250000Y-122200000D01*
X144500000Y-121450000D01*
X144500000Y-120700000D01*
X144500000Y-119700000D01*
X144500000Y-118950000D01*
X144250000Y-118200000D01*
X143500000Y-116700000D01*
X143499999Y-116699999D01*
X142834788Y-116478262D01*
X142777413Y-116438387D01*
X142750705Y-116373824D01*
X142750000Y-116360625D01*
X142750000Y-114824000D01*
X142769685Y-114756961D01*
X142822489Y-114711206D01*
X142874000Y-114700000D01*
X143626000Y-114700000D01*
X143693039Y-114719685D01*
G37*
%TD.AperFunction*%
%TD*%
%TA.AperFunction,Conductor*%
%TO.N,+12V*%
G36*
X116943039Y-114969685D02*
G01*
X116988794Y-115022489D01*
X117000000Y-115074000D01*
X117000000Y-115285493D01*
X116999042Y-115300873D01*
X116837727Y-116591382D01*
X116809882Y-116655460D01*
X116751810Y-116694313D01*
X116714687Y-116700000D01*
X110374000Y-116700000D01*
X110306961Y-116680315D01*
X110261206Y-116627511D01*
X110250000Y-116576000D01*
X110250000Y-115074000D01*
X110269685Y-115006961D01*
X110322489Y-114961206D01*
X110374000Y-114950000D01*
X116876000Y-114950000D01*
X116943039Y-114969685D01*
G37*
%TD.AperFunction*%
%TD*%
%TA.AperFunction,Conductor*%
%TO.N,GND*%
G36*
X141674022Y-118456959D02*
G01*
X141790298Y-118497645D01*
X141790300Y-118497646D01*
X141820730Y-118500500D01*
X141820734Y-118500500D01*
X143179270Y-118500500D01*
X143209699Y-118497646D01*
X143247378Y-118484461D01*
X143325978Y-118456959D01*
X143366933Y-118450000D01*
X144027344Y-118450000D01*
X144094383Y-118469685D01*
X144140138Y-118522489D01*
X144144976Y-118534776D01*
X144239534Y-118818448D01*
X144245897Y-118857660D01*
X144245897Y-121542338D01*
X144245421Y-121545270D01*
X144245816Y-121546821D01*
X144239533Y-121581551D01*
X144228312Y-121615213D01*
X144188438Y-121672587D01*
X144123874Y-121699296D01*
X144110676Y-121700000D01*
X140869897Y-121700000D01*
X140802858Y-121680315D01*
X140757103Y-121627511D01*
X140745897Y-121576000D01*
X140745897Y-119530636D01*
X140748305Y-119506318D01*
X140769155Y-119402071D01*
X140939632Y-118549682D01*
X140972082Y-118487804D01*
X141032834Y-118453294D01*
X141061224Y-118450000D01*
X141633067Y-118450000D01*
X141674022Y-118456959D01*
G37*
%TD.AperFunction*%
%TD*%
%TA.AperFunction,Conductor*%
%TO.N,GND*%
G36*
X132193039Y-108469685D02*
G01*
X132238794Y-108522489D01*
X132250000Y-108574000D01*
X132250000Y-113326000D01*
X132230315Y-113393039D01*
X132177511Y-113438794D01*
X132126000Y-113450000D01*
X128124000Y-113450000D01*
X128056961Y-113430315D01*
X128011206Y-113377511D01*
X128000000Y-113326000D01*
X128000000Y-111324000D01*
X128019685Y-111256961D01*
X128072489Y-111211206D01*
X128124000Y-111200000D01*
X131250000Y-111200000D01*
X131250000Y-108574000D01*
X131269685Y-108506961D01*
X131322489Y-108461206D01*
X131374000Y-108450000D01*
X132126000Y-108450000D01*
X132193039Y-108469685D01*
G37*
%TD.AperFunction*%
%TD*%
%TA.AperFunction,Conductor*%
%TO.N,GND*%
G36*
X120443039Y-108469685D02*
G01*
X120488794Y-108522489D01*
X120500000Y-108574000D01*
X120500000Y-113326000D01*
X120480315Y-113393039D01*
X120427511Y-113438794D01*
X120376000Y-113450000D01*
X116624000Y-113450000D01*
X116556961Y-113430315D01*
X116511206Y-113377511D01*
X116500000Y-113326000D01*
X116500000Y-111324000D01*
X116519685Y-111256961D01*
X116572489Y-111211206D01*
X116624000Y-111200000D01*
X119750000Y-111200000D01*
X119750000Y-108574000D01*
X119769685Y-108506961D01*
X119822489Y-108461206D01*
X119874000Y-108450000D01*
X120376000Y-108450000D01*
X120443039Y-108469685D01*
G37*
%TD.AperFunction*%
%TD*%
%TA.AperFunction,Conductor*%
%TO.N,+12V*%
G36*
X119443039Y-101219685D02*
G01*
X119488794Y-101272489D01*
X119500000Y-101324000D01*
X119500000Y-105076000D01*
X119480315Y-105143039D01*
X119427511Y-105188794D01*
X119376000Y-105200000D01*
X115124000Y-105200000D01*
X115056961Y-105180315D01*
X115011206Y-105127511D01*
X115000000Y-105076000D01*
X115000000Y-103700000D01*
X111374000Y-103700000D01*
X111306961Y-103680315D01*
X111261206Y-103627511D01*
X111250000Y-103576000D01*
X111250000Y-101324000D01*
X111269685Y-101256961D01*
X111322489Y-101211206D01*
X111374000Y-101200000D01*
X119376000Y-101200000D01*
X119443039Y-101219685D01*
G37*
%TD.AperFunction*%
%TD*%
%TA.AperFunction,Conductor*%
%TO.N,+12V*%
G36*
X139943039Y-114969685D02*
G01*
X139988794Y-115022489D01*
X140000000Y-115074000D01*
X140000000Y-116576000D01*
X139980315Y-116643039D01*
X139927511Y-116688794D01*
X139876000Y-116700000D01*
X133374000Y-116700000D01*
X133306961Y-116680315D01*
X133261206Y-116627511D01*
X133250000Y-116576000D01*
X133250000Y-115074000D01*
X133269685Y-115006961D01*
X133322489Y-114961206D01*
X133374000Y-114950000D01*
X139876000Y-114950000D01*
X139943039Y-114969685D01*
G37*
%TD.AperFunction*%
%TD*%
%TA.AperFunction,Conductor*%
%TO.N,GND*%
G36*
X137127823Y-101448203D02*
G01*
X137194566Y-101468872D01*
X137239540Y-101522343D01*
X137250000Y-101572190D01*
X137250000Y-105576000D01*
X137230315Y-105643039D01*
X137177511Y-105688794D01*
X137126000Y-105700000D01*
X131250000Y-105700000D01*
X131250000Y-106576000D01*
X131230315Y-106643039D01*
X131177511Y-106688794D01*
X131126000Y-106700000D01*
X126874000Y-106700000D01*
X126806961Y-106680315D01*
X126761206Y-106627511D01*
X126750000Y-106576000D01*
X126750000Y-105700000D01*
X120442018Y-105700000D01*
X120412577Y-105691355D01*
X120382591Y-105684832D01*
X120377575Y-105681077D01*
X120374979Y-105680315D01*
X120354343Y-105663686D01*
X120238983Y-105548327D01*
X120205500Y-105487005D01*
X120202674Y-105459275D01*
X120248617Y-101324436D01*
X120269045Y-101257622D01*
X120322354Y-101212456D01*
X120374427Y-101201829D01*
X137127823Y-101448203D01*
G37*
%TD.AperFunction*%
%TD*%
%TA.AperFunction,Conductor*%
%TO.N,GND*%
G36*
X143443039Y-108469685D02*
G01*
X143488794Y-108522489D01*
X143500000Y-108574000D01*
X143500000Y-113326000D01*
X143480315Y-113393039D01*
X143427511Y-113438794D01*
X143376000Y-113450000D01*
X139624000Y-113450000D01*
X139556961Y-113430315D01*
X139511206Y-113377511D01*
X139500000Y-113326000D01*
X139500000Y-111324000D01*
X139519685Y-111256961D01*
X139572489Y-111211206D01*
X139624000Y-111200000D01*
X142750000Y-111200000D01*
X142750000Y-108574000D01*
X142769685Y-108506961D01*
X142822489Y-108461206D01*
X142874000Y-108450000D01*
X143376000Y-108450000D01*
X143443039Y-108469685D01*
G37*
%TD.AperFunction*%
%TD*%
%TA.AperFunction,Conductor*%
%TO.N,GND*%
G36*
X132094382Y-118719685D02*
G01*
X132140137Y-118772489D01*
X132144980Y-118784788D01*
X132243637Y-119080758D01*
X132250000Y-119119970D01*
X132250000Y-121389875D01*
X132247592Y-121414193D01*
X132210367Y-121600318D01*
X132177917Y-121662196D01*
X132117165Y-121696706D01*
X132088775Y-121700000D01*
X128874000Y-121700000D01*
X128806961Y-121680315D01*
X128761206Y-121627511D01*
X128750000Y-121576000D01*
X128750000Y-119960268D01*
X128751687Y-119939883D01*
X128869443Y-119233347D01*
X128941064Y-118803614D01*
X128971502Y-118740723D01*
X129031110Y-118704272D01*
X129063377Y-118700000D01*
X132027343Y-118700000D01*
X132094382Y-118719685D01*
G37*
%TD.AperFunction*%
%TD*%
%TA.AperFunction,Conductor*%
%TO.N,GND*%
G36*
X137943039Y-109969685D02*
G01*
X137988794Y-110022489D01*
X138000000Y-110074000D01*
X138000000Y-110322986D01*
X137980315Y-110390025D01*
X137974376Y-110398472D01*
X137969529Y-110404787D01*
X137923387Y-110484709D01*
X137923386Y-110484712D01*
X137899500Y-110573856D01*
X137899500Y-112326000D01*
X137879815Y-112393039D01*
X137827011Y-112438794D01*
X137775500Y-112450000D01*
X135750000Y-112450000D01*
X135750000Y-114576000D01*
X135730315Y-114643039D01*
X135677511Y-114688794D01*
X135626000Y-114700000D01*
X133898500Y-114700000D01*
X133831461Y-114680315D01*
X133785706Y-114627511D01*
X133774500Y-114576000D01*
X133774500Y-110074000D01*
X133794185Y-110006961D01*
X133846989Y-109961206D01*
X133898500Y-109950000D01*
X137876000Y-109950000D01*
X137943039Y-109969685D01*
G37*
%TD.AperFunction*%
%TD*%
%TA.AperFunction,Conductor*%
%TO.N,/Motor Driver1/M1*%
G36*
X141193039Y-114969685D02*
G01*
X141238794Y-115022489D01*
X141250000Y-115074000D01*
X141250000Y-116920727D01*
X141236909Y-116976181D01*
X141000001Y-117449996D01*
X140749999Y-118450003D01*
X140749991Y-118450041D01*
X140500000Y-119699999D01*
X140500000Y-121700001D01*
X140999999Y-122700000D01*
X141931454Y-123165727D01*
X141982613Y-123213314D01*
X142000000Y-123276636D01*
X142000000Y-124179877D01*
X141993637Y-124219089D01*
X141783506Y-124849479D01*
X141743631Y-124906854D01*
X141679068Y-124933563D01*
X141645484Y-124932580D01*
X140312284Y-124710380D01*
X140249392Y-124679942D01*
X140221760Y-124643521D01*
X139750000Y-123700000D01*
X139253942Y-122707884D01*
X139247214Y-122691642D01*
X139006363Y-121969089D01*
X139000000Y-121929877D01*
X139000000Y-120712278D01*
X139002408Y-120687960D01*
X139249420Y-119452900D01*
X139250714Y-119447144D01*
X139496701Y-118463195D01*
X139506082Y-118437834D01*
X140000000Y-117450000D01*
X140250000Y-116450000D01*
X140250000Y-115074000D01*
X140269685Y-115006961D01*
X140322489Y-114961206D01*
X140374000Y-114950000D01*
X141126000Y-114950000D01*
X141193039Y-114969685D01*
G37*
%TD.AperFunction*%
%TD*%
%TA.AperFunction,Conductor*%
%TO.N,GND*%
G36*
X120510647Y-118719685D02*
G01*
X120554517Y-118768546D01*
X120555723Y-118770958D01*
X120562451Y-118787200D01*
X120783700Y-119450947D01*
X120790063Y-119490159D01*
X120790063Y-121576000D01*
X120770378Y-121643039D01*
X120717574Y-121688794D01*
X120666063Y-121700000D01*
X117414063Y-121700000D01*
X117347024Y-121680315D01*
X117301269Y-121627511D01*
X117290063Y-121576000D01*
X117290063Y-119809805D01*
X117292471Y-119785487D01*
X117447485Y-119010413D01*
X117451435Y-118995538D01*
X117521686Y-118784785D01*
X117561559Y-118727413D01*
X117626123Y-118700705D01*
X117639322Y-118700000D01*
X120443608Y-118700000D01*
X120510647Y-118719685D01*
G37*
%TD.AperFunction*%
%TD*%
%TA.AperFunction,Conductor*%
%TO.N,/Motor Driver/M1*%
G36*
X129443039Y-114969685D02*
G01*
X129488794Y-115022489D01*
X129500000Y-115074000D01*
X129500000Y-116920728D01*
X129486909Y-116976182D01*
X129000001Y-117949997D01*
X129000000Y-117949998D01*
X128750000Y-118699997D01*
X128500000Y-120200001D01*
X128500000Y-121700000D01*
X128750000Y-122450000D01*
X129472601Y-122931734D01*
X129514727Y-122979454D01*
X129746058Y-123442116D01*
X129752786Y-123458358D01*
X129993637Y-124180911D01*
X130000000Y-124220123D01*
X130000000Y-124873364D01*
X129980315Y-124940403D01*
X129931454Y-124984273D01*
X129526182Y-125186909D01*
X129470728Y-125200000D01*
X128779272Y-125200000D01*
X128723818Y-125186909D01*
X128279454Y-124964727D01*
X128231734Y-124922601D01*
X127766237Y-124224355D01*
X127746369Y-124170952D01*
X127500958Y-122207664D01*
X127500000Y-122192284D01*
X127500000Y-119229272D01*
X127513091Y-119173818D01*
X127750000Y-118700000D01*
X127997218Y-117958345D01*
X128003933Y-117942132D01*
X128250000Y-117450000D01*
X128500000Y-116950000D01*
X128750000Y-116450000D01*
X128750000Y-115074000D01*
X128769685Y-115006961D01*
X128822489Y-114961206D01*
X128874000Y-114950000D01*
X129376000Y-114950000D01*
X129443039Y-114969685D01*
G37*
%TD.AperFunction*%
%TD*%
%TA.AperFunction,Conductor*%
%TO.N,GND*%
G36*
X176589284Y-110719685D02*
G01*
X176609926Y-110736319D01*
X176713681Y-110840074D01*
X176747166Y-110901397D01*
X176750000Y-110927755D01*
X176750000Y-115826000D01*
X176730315Y-115893039D01*
X176677511Y-115938794D01*
X176626000Y-115950000D01*
X172874000Y-115950000D01*
X172806961Y-115930315D01*
X172761206Y-115877511D01*
X172750000Y-115826000D01*
X172750000Y-110824000D01*
X172769685Y-110756961D01*
X172822489Y-110711206D01*
X172874000Y-110700000D01*
X176522245Y-110700000D01*
X176589284Y-110719685D01*
G37*
%TD.AperFunction*%
%TD*%
%TA.AperFunction,Conductor*%
%TO.N,GND*%
G36*
X135219995Y-88219685D02*
G01*
X135240638Y-88236319D01*
X135463681Y-88459363D01*
X135497166Y-88520685D01*
X135500000Y-88547043D01*
X135500000Y-90576000D01*
X135480315Y-90643039D01*
X135427511Y-90688794D01*
X135376000Y-90700000D01*
X134616824Y-90700000D01*
X134549785Y-90680315D01*
X134518449Y-90651487D01*
X134505454Y-90634552D01*
X134505452Y-90634550D01*
X134505451Y-90634549D01*
X134385233Y-90542302D01*
X134385229Y-90542300D01*
X134321801Y-90516027D01*
X134245236Y-90484313D01*
X134231171Y-90482461D01*
X134132727Y-90469500D01*
X134132720Y-90469500D01*
X132807280Y-90469500D01*
X132807272Y-90469500D01*
X132694764Y-90484313D01*
X132694763Y-90484313D01*
X132554770Y-90542300D01*
X132434545Y-90634552D01*
X132421551Y-90651487D01*
X132418473Y-90653734D01*
X132416889Y-90657203D01*
X132390477Y-90674176D01*
X132365123Y-90692690D01*
X132360384Y-90693515D01*
X132358111Y-90694977D01*
X132323176Y-90700000D01*
X132124000Y-90700000D01*
X132056961Y-90680315D01*
X132011206Y-90627511D01*
X132000000Y-90576000D01*
X132000000Y-88497043D01*
X132019685Y-88430004D01*
X132036319Y-88409362D01*
X132209362Y-88236319D01*
X132270685Y-88202834D01*
X132297043Y-88200000D01*
X135152956Y-88200000D01*
X135219995Y-88219685D01*
G37*
%TD.AperFunction*%
%TD*%
%TA.AperFunction,Conductor*%
%TO.N,/Motor Driver/M2*%
G36*
X132193039Y-114719685D02*
G01*
X132238794Y-114772489D01*
X132250000Y-114824000D01*
X132250000Y-116450000D01*
X132989206Y-117189206D01*
X133007854Y-117213090D01*
X133738949Y-118431582D01*
X133754212Y-118471061D01*
X133997592Y-119687960D01*
X134000000Y-119712278D01*
X134000000Y-122179877D01*
X133993637Y-122219089D01*
X133505251Y-123684247D01*
X133490788Y-123713818D01*
X133011782Y-124432327D01*
X132983008Y-124462744D01*
X132051976Y-125161017D01*
X131986534Y-125185493D01*
X131938364Y-125179454D01*
X131298726Y-124966242D01*
X131241351Y-124926368D01*
X131227031Y-124904062D01*
X130777727Y-124005454D01*
X130765352Y-123936689D01*
X130777727Y-123894546D01*
X131231515Y-122986970D01*
X131279102Y-122935811D01*
X131286970Y-122931515D01*
X132250000Y-122450000D01*
X132500000Y-121200000D01*
X132500000Y-120200000D01*
X132500000Y-119200000D01*
X132251500Y-118454501D01*
X132248849Y-118445397D01*
X132000000Y-117450000D01*
X131750000Y-116950000D01*
X131270826Y-116231239D01*
X131250018Y-116164540D01*
X131250000Y-116162456D01*
X131250000Y-114824000D01*
X131269685Y-114756961D01*
X131322489Y-114711206D01*
X131374000Y-114700000D01*
X132126000Y-114700000D01*
X132193039Y-114719685D01*
G37*
%TD.AperFunction*%
%TD*%
%TA.AperFunction,Conductor*%
%TO.N,+12V*%
G36*
X163593039Y-115219685D02*
G01*
X163638794Y-115272489D01*
X163650000Y-115324000D01*
X163650000Y-116802560D01*
X163644303Y-116821959D01*
X163643505Y-116842166D01*
X163631248Y-116866420D01*
X163630315Y-116869599D01*
X163627587Y-116873666D01*
X163611180Y-116897106D01*
X163556610Y-116940740D01*
X163509593Y-116950000D01*
X157024000Y-116950000D01*
X156956961Y-116930315D01*
X156911206Y-116877511D01*
X156900000Y-116826000D01*
X156900000Y-115324000D01*
X156919685Y-115256961D01*
X156972489Y-115211206D01*
X157024000Y-115200000D01*
X163526000Y-115200000D01*
X163593039Y-115219685D01*
G37*
%TD.AperFunction*%
%TD*%
%TA.AperFunction,Conductor*%
%TO.N,/Motor Driver2/M1*%
G36*
X117943039Y-114969685D02*
G01*
X117988794Y-115022489D01*
X118000000Y-115074000D01*
X118000000Y-116429877D01*
X117993637Y-116469089D01*
X117750000Y-117199998D01*
X117501155Y-118195380D01*
X117498494Y-118204517D01*
X117249998Y-118950005D01*
X117000000Y-120199999D01*
X117000000Y-121199999D01*
X117250000Y-122449999D01*
X117250000Y-122450000D01*
X118476368Y-122940547D01*
X118517997Y-122967997D01*
X118963681Y-123413681D01*
X118997166Y-123475004D01*
X119000000Y-123501362D01*
X119000000Y-125123364D01*
X118980315Y-125190403D01*
X118931454Y-125234273D01*
X118526182Y-125436909D01*
X118470728Y-125450000D01*
X117770123Y-125450000D01*
X117730911Y-125443637D01*
X117048726Y-125216242D01*
X116991351Y-125176368D01*
X116977031Y-125154062D01*
X116750000Y-124700000D01*
X116254282Y-123956423D01*
X116246547Y-123943094D01*
X115756088Y-122962176D01*
X115746699Y-122936796D01*
X115503702Y-121964808D01*
X115500000Y-121934734D01*
X115500000Y-120215266D01*
X115503702Y-120185192D01*
X115746699Y-119213204D01*
X115756088Y-119187824D01*
X116246550Y-118206898D01*
X116254277Y-118193583D01*
X116750000Y-117450000D01*
X117000000Y-116950000D01*
X117062500Y-116450000D01*
X117236423Y-115058620D01*
X117264270Y-114994540D01*
X117322342Y-114955687D01*
X117359465Y-114950000D01*
X117876000Y-114950000D01*
X117943039Y-114969685D01*
G37*
%TD.AperFunction*%
%TD*%
%TA.AperFunction,Conductor*%
%TO.N,GND*%
G36*
X147443039Y-100969685D02*
G01*
X147488794Y-101022489D01*
X147500000Y-101074000D01*
X147500000Y-104857981D01*
X147480315Y-104925020D01*
X147463681Y-104945662D01*
X146745662Y-105663681D01*
X146684339Y-105697166D01*
X146657981Y-105700000D01*
X142874000Y-105700000D01*
X142806961Y-105680315D01*
X142761206Y-105627511D01*
X142750000Y-105576000D01*
X142750000Y-101074000D01*
X142769685Y-101006961D01*
X142822489Y-100961206D01*
X142874000Y-100950000D01*
X147376000Y-100950000D01*
X147443039Y-100969685D01*
G37*
%TD.AperFunction*%
%TD*%
%TA.AperFunction,Conductor*%
%TO.N,/Motor Driver4/M1*%
G36*
X164693039Y-115219685D02*
G01*
X164738794Y-115272489D01*
X164750000Y-115324000D01*
X164750000Y-116670728D01*
X164736909Y-116726182D01*
X164000001Y-118199997D01*
X164000000Y-118199998D01*
X163750000Y-118950000D01*
X163500000Y-119700000D01*
X163500000Y-122450001D01*
X163749998Y-122949997D01*
X163750000Y-122950000D01*
X163963681Y-123163681D01*
X163997166Y-123225004D01*
X164000000Y-123251362D01*
X164000000Y-125076000D01*
X163980315Y-125143039D01*
X163927511Y-125188794D01*
X163876000Y-125200000D01*
X163500000Y-125200000D01*
X162801362Y-125200000D01*
X162734323Y-125180315D01*
X162713681Y-125163681D01*
X162270699Y-124720699D01*
X162240743Y-124672230D01*
X162002440Y-123957321D01*
X161998485Y-123942427D01*
X161752408Y-122712040D01*
X161750000Y-122687722D01*
X161750000Y-121465266D01*
X161753702Y-121435192D01*
X161998845Y-120454620D01*
X162001506Y-120445482D01*
X162497214Y-118958358D01*
X162503942Y-118942116D01*
X162991003Y-117967993D01*
X163014225Y-117935774D01*
X163500000Y-117450000D01*
X163647768Y-117203718D01*
X163652471Y-117196468D01*
X164000000Y-116700000D01*
X164000000Y-115324000D01*
X164019685Y-115256961D01*
X164072489Y-115211206D01*
X164124000Y-115200000D01*
X164626000Y-115200000D01*
X164693039Y-115219685D01*
G37*
%TD.AperFunction*%
%TD*%
%TA.AperFunction,Conductor*%
%TO.N,GND*%
G36*
X114943039Y-109969685D02*
G01*
X114988794Y-110022489D01*
X115000000Y-110074000D01*
X115000000Y-110222986D01*
X114980315Y-110290025D01*
X114974376Y-110298472D01*
X114969529Y-110304787D01*
X114923387Y-110384709D01*
X114923386Y-110384712D01*
X114899500Y-110473856D01*
X114899500Y-112326000D01*
X114879815Y-112393039D01*
X114827011Y-112438794D01*
X114775500Y-112450000D01*
X112750000Y-112450000D01*
X112750000Y-114576000D01*
X112730315Y-114643039D01*
X112677511Y-114688794D01*
X112626000Y-114700000D01*
X110717019Y-114700000D01*
X110649980Y-114680315D01*
X110629338Y-114663681D01*
X110286319Y-114320662D01*
X110252834Y-114259339D01*
X110250000Y-114232981D01*
X110250000Y-110074000D01*
X110269685Y-110006961D01*
X110322489Y-109961206D01*
X110374000Y-109950000D01*
X114876000Y-109950000D01*
X114943039Y-109969685D01*
G37*
%TD.AperFunction*%
%TD*%
%TA.AperFunction,Conductor*%
%TO.N,/Motor Driver3/M2*%
G36*
X155193039Y-114969685D02*
G01*
X155238794Y-115022489D01*
X155250000Y-115074000D01*
X155250000Y-115700000D01*
X155250000Y-116200000D01*
X155474320Y-116648638D01*
X155500000Y-116699999D01*
X155500000Y-116700000D01*
X155749999Y-117199999D01*
X156488949Y-118431582D01*
X156504212Y-118471061D01*
X156747592Y-119687960D01*
X156750000Y-119712278D01*
X156750000Y-122420728D01*
X156736909Y-122476182D01*
X156500001Y-122949997D01*
X156500000Y-122949998D01*
X156252786Y-123691641D01*
X156246058Y-123707883D01*
X155750000Y-124700000D01*
X155534273Y-125131454D01*
X155486686Y-125182613D01*
X155423364Y-125200000D01*
X154801362Y-125200000D01*
X154734323Y-125180315D01*
X154713681Y-125163681D01*
X154514229Y-124964229D01*
X154491001Y-124932002D01*
X154263091Y-124476182D01*
X154250000Y-124420728D01*
X154250000Y-123737544D01*
X154269685Y-123670505D01*
X154270826Y-123668761D01*
X154743190Y-122960215D01*
X154758683Y-122941317D01*
X155250000Y-122450000D01*
X155500000Y-121700000D01*
X155500000Y-119950000D01*
X155500000Y-119200000D01*
X155500000Y-118950000D01*
X155253936Y-118457872D01*
X155247216Y-118441649D01*
X155000000Y-117700000D01*
X154750000Y-117200000D01*
X154500000Y-116950000D01*
X154286319Y-116736319D01*
X154252834Y-116674996D01*
X154250000Y-116648638D01*
X154250000Y-115074000D01*
X154269685Y-115006961D01*
X154322489Y-114961206D01*
X154374000Y-114950000D01*
X155126000Y-114950000D01*
X155193039Y-114969685D01*
G37*
%TD.AperFunction*%
%TD*%
M02*
