%TF.GenerationSoftware,KiCad,Pcbnew,9.0.7*%
%TF.CreationDate,2026-02-09T16:48:07-04:00*%
%TF.ProjectId,Final_Proyect,46696e61-6c5f-4507-926f-796563742e6b,rev?*%
%TF.SameCoordinates,Original*%
%TF.FileFunction,Paste,Top*%
%TF.FilePolarity,Positive*%
%FSLAX46Y46*%
G04 Gerber Fmt 4.6, Leading zero omitted, Abs format (unit mm)*
G04 Created by KiCad (PCBNEW 9.0.7) date 2026-02-09 16:48:07*
%MOMM*%
%LPD*%
G01*
G04 APERTURE LIST*
G04 Aperture macros list*
%AMRoundRect*
0 Rectangle with rounded corners*
0 $1 Rounding radius*
0 $2 $3 $4 $5 $6 $7 $8 $9 X,Y pos of 4 corners*
0 Add a 4 corners polygon primitive as box body*
4,1,4,$2,$3,$4,$5,$6,$7,$8,$9,$2,$3,0*
0 Add four circle primitives for the rounded corners*
1,1,$1+$1,$2,$3*
1,1,$1+$1,$4,$5*
1,1,$1+$1,$6,$7*
1,1,$1+$1,$8,$9*
0 Add four rect primitives between the rounded corners*
20,1,$1+$1,$2,$3,$4,$5,0*
20,1,$1+$1,$4,$5,$6,$7,0*
20,1,$1+$1,$6,$7,$8,$9,0*
20,1,$1+$1,$8,$9,$2,$3,0*%
G04 Aperture macros list end*
%ADD10RoundRect,0.250000X-0.450000X0.262500X-0.450000X-0.262500X0.450000X-0.262500X0.450000X0.262500X0*%
%ADD11RoundRect,0.250000X0.450000X-0.262500X0.450000X0.262500X-0.450000X0.262500X-0.450000X-0.262500X0*%
%ADD12RoundRect,0.225000X-0.250000X0.225000X-0.250000X-0.225000X0.250000X-0.225000X0.250000X0.225000X0*%
%ADD13RoundRect,0.250000X1.500000X0.550000X-1.500000X0.550000X-1.500000X-0.550000X1.500000X-0.550000X0*%
%ADD14RoundRect,0.250000X-0.262500X-0.450000X0.262500X-0.450000X0.262500X0.450000X-0.262500X0.450000X0*%
%ADD15RoundRect,0.218750X-0.218750X-0.256250X0.218750X-0.256250X0.218750X0.256250X-0.218750X0.256250X0*%
%ADD16RoundRect,0.250000X-0.475000X0.250000X-0.475000X-0.250000X0.475000X-0.250000X0.475000X0.250000X0*%
%ADD17RoundRect,0.250000X0.475000X-0.250000X0.475000X0.250000X-0.475000X0.250000X-0.475000X-0.250000X0*%
%ADD18RoundRect,0.250000X0.262500X0.450000X-0.262500X0.450000X-0.262500X-0.450000X0.262500X-0.450000X0*%
%ADD19RoundRect,0.150000X-0.425000X0.150000X-0.425000X-0.150000X0.425000X-0.150000X0.425000X0.150000X0*%
%ADD20RoundRect,0.075000X-0.500000X0.075000X-0.500000X-0.075000X0.500000X-0.075000X0.500000X0.075000X0*%
%ADD21O,2.100000X1.000000*%
%ADD22O,1.800000X1.000000*%
%ADD23RoundRect,0.225000X0.250000X-0.225000X0.250000X0.225000X-0.250000X0.225000X-0.250000X-0.225000X0*%
%ADD24RoundRect,0.250000X-0.625000X0.312500X-0.625000X-0.312500X0.625000X-0.312500X0.625000X0.312500X0*%
%ADD25R,3.100000X2.400000*%
%ADD26R,0.500000X2.200000*%
%ADD27R,0.900000X0.900000*%
%ADD28R,1.500000X0.900000*%
%ADD29R,0.900000X1.500000*%
%ADD30RoundRect,0.250000X-1.500000X-0.550000X1.500000X-0.550000X1.500000X0.550000X-1.500000X0.550000X0*%
%ADD31RoundRect,0.200000X0.800000X-0.200000X0.800000X0.200000X-0.800000X0.200000X-0.800000X-0.200000X0*%
%ADD32RoundRect,0.218750X-0.256250X0.218750X-0.256250X-0.218750X0.256250X-0.218750X0.256250X0.218750X0*%
%ADD33RoundRect,0.250000X-0.550000X1.500000X-0.550000X-1.500000X0.550000X-1.500000X0.550000X1.500000X0*%
%ADD34RoundRect,0.375000X-0.625000X-0.375000X0.625000X-0.375000X0.625000X0.375000X-0.625000X0.375000X0*%
%ADD35RoundRect,0.500000X-0.500000X-1.400000X0.500000X-1.400000X0.500000X1.400000X-0.500000X1.400000X0*%
%ADD36RoundRect,0.225000X0.225000X0.250000X-0.225000X0.250000X-0.225000X-0.250000X0.225000X-0.250000X0*%
G04 APERTURE END LIST*
D10*
%TO.C,R21*%
X125500000Y-108917500D03*
X125500000Y-110742500D03*
%TD*%
D11*
%TO.C,R25*%
X137000000Y-115782500D03*
X137000000Y-113957500D03*
%TD*%
D12*
%TO.C,C6*%
X141200000Y-84425000D03*
X141200000Y-85975000D03*
%TD*%
D13*
%TO.C,C18*%
X150300000Y-103100000D03*
X144700000Y-103100000D03*
%TD*%
D14*
%TO.C,R19*%
X149287500Y-92200000D03*
X151112500Y-92200000D03*
%TD*%
D15*
%TO.C,D1*%
X119162500Y-98930000D03*
X120737500Y-98930000D03*
%TD*%
D10*
%TO.C,R41*%
X160650000Y-109137500D03*
X160650000Y-110962500D03*
%TD*%
D16*
%TO.C,C19*%
X158150000Y-109080000D03*
X158150000Y-110980000D03*
%TD*%
D10*
%TO.C,R13*%
X150200000Y-84287500D03*
X150200000Y-86112500D03*
%TD*%
D17*
%TO.C,C20*%
X158150000Y-116000000D03*
X158150000Y-114100000D03*
%TD*%
D18*
%TO.C,R7*%
X176912500Y-99200000D03*
X175087500Y-99200000D03*
%TD*%
D19*
%TO.C,J5*%
X116180000Y-90680000D03*
X116180000Y-91480000D03*
D20*
X116180000Y-92630000D03*
X116180000Y-93630000D03*
X116180000Y-94130000D03*
X116180000Y-95130000D03*
D19*
X116180000Y-96280000D03*
X116180000Y-97080000D03*
X116180000Y-97080000D03*
X116180000Y-96280000D03*
D20*
X116180000Y-95630000D03*
X116180000Y-94630000D03*
X116180000Y-93130000D03*
X116180000Y-92130000D03*
D19*
X116180000Y-91480000D03*
X116180000Y-90680000D03*
D21*
X115605000Y-89560000D03*
D22*
X111425000Y-89560000D03*
D21*
X115605000Y-98200000D03*
D22*
X111425000Y-98200000D03*
%TD*%
D18*
%TO.C,R18*%
X151112500Y-90200000D03*
X149287500Y-90200000D03*
%TD*%
%TO.C,R8*%
X176912500Y-97200000D03*
X175087500Y-97200000D03*
%TD*%
%TO.C,R9*%
X176912500Y-95200000D03*
X175087500Y-95200000D03*
%TD*%
%TO.C,R23*%
X151112500Y-94200000D03*
X149287500Y-94200000D03*
%TD*%
D14*
%TO.C,R24*%
X149287500Y-96200000D03*
X151112500Y-96200000D03*
%TD*%
D23*
%TO.C,C3*%
X135120000Y-85975000D03*
X135120000Y-84425000D03*
%TD*%
D24*
%TO.C,R27*%
X119000000Y-117837500D03*
X119000000Y-120762500D03*
%TD*%
D13*
%TO.C,C12*%
X140300000Y-103100000D03*
X134700000Y-103100000D03*
%TD*%
D25*
%TO.C,U3*%
X129800000Y-112350000D03*
D26*
X131705000Y-109475000D03*
X130435000Y-109475000D03*
X129165000Y-109475000D03*
X127895000Y-109475000D03*
X127895000Y-115225000D03*
X129165000Y-115225000D03*
X130435000Y-115225000D03*
X131705000Y-115225000D03*
%TD*%
D25*
%TO.C,U5*%
X118200000Y-112350000D03*
D26*
X120105000Y-109475000D03*
X118835000Y-109475000D03*
X117565000Y-109475000D03*
X116295000Y-109475000D03*
X116295000Y-115225000D03*
X117565000Y-115225000D03*
X118835000Y-115225000D03*
X120105000Y-115225000D03*
%TD*%
D10*
%TO.C,R26*%
X137000000Y-108887500D03*
X137000000Y-110712500D03*
%TD*%
D11*
%TO.C,R11*%
X124300000Y-98932500D03*
X124300000Y-97107500D03*
%TD*%
D27*
%TO.C,U1*%
X159800000Y-90260000D03*
X159800000Y-91660000D03*
X159800000Y-93060000D03*
X161200000Y-90260000D03*
X161200000Y-91660000D03*
X161200000Y-93060000D03*
X162600000Y-90260000D03*
X162600000Y-91660000D03*
X162600000Y-93060000D03*
D28*
X153950000Y-83940000D03*
X153950000Y-85210000D03*
X153950000Y-86480000D03*
X153950000Y-87750000D03*
X153950000Y-89020000D03*
X153950000Y-90290000D03*
X153950000Y-91560000D03*
X153950000Y-92830000D03*
X153950000Y-94100000D03*
X153950000Y-95370000D03*
X153950000Y-96640000D03*
X153950000Y-97910000D03*
X153950000Y-99180000D03*
X153950000Y-100450000D03*
D29*
X155715000Y-101700000D03*
X156985000Y-101700000D03*
X158255000Y-101700000D03*
X159525000Y-101700000D03*
X160795000Y-101700000D03*
X162065000Y-101700000D03*
X163335000Y-101700000D03*
X164605000Y-101700000D03*
X165875000Y-101700000D03*
X167145000Y-101700000D03*
X168415000Y-101700000D03*
X169685000Y-101700000D03*
D28*
X171450000Y-100450000D03*
X171450000Y-99180000D03*
X171450000Y-97910000D03*
X171450000Y-96640000D03*
X171450000Y-95370000D03*
X171450000Y-94100000D03*
X171450000Y-92830000D03*
X171450000Y-91560000D03*
X171450000Y-90290000D03*
X171450000Y-89020000D03*
X171450000Y-87750000D03*
X171450000Y-86480000D03*
X171450000Y-85210000D03*
X171450000Y-83940000D03*
%TD*%
D17*
%TO.C,C11*%
X134500000Y-115800000D03*
X134500000Y-113900000D03*
%TD*%
D23*
%TO.C,C4*%
X132950000Y-85975000D03*
X132950000Y-84425000D03*
%TD*%
%TO.C,C5*%
X143200000Y-85975000D03*
X143200000Y-84425000D03*
%TD*%
D11*
%TO.C,R35*%
X148500000Y-115712500D03*
X148500000Y-113887500D03*
%TD*%
D17*
%TO.C,C8*%
X123000000Y-115800000D03*
X123000000Y-113900000D03*
%TD*%
D11*
%TO.C,R20*%
X125500000Y-115782500D03*
X125500000Y-113957500D03*
%TD*%
D12*
%TO.C,C2*%
X137120000Y-84425000D03*
X137120000Y-85975000D03*
%TD*%
D18*
%TO.C,R1*%
X171912500Y-108700000D03*
X170087500Y-108700000D03*
%TD*%
D10*
%TO.C,R28*%
X142200000Y-88512500D03*
X142200000Y-90337500D03*
%TD*%
D14*
%TO.C,R16*%
X149287500Y-88270000D03*
X151112500Y-88270000D03*
%TD*%
D18*
%TO.C,R39*%
X160912500Y-106200000D03*
X159087500Y-106200000D03*
%TD*%
D24*
%TO.C,R17*%
X130500000Y-117837500D03*
X130500000Y-120762500D03*
%TD*%
D14*
%TO.C,R29*%
X133787500Y-97200000D03*
X135612500Y-97200000D03*
%TD*%
D17*
%TO.C,C17*%
X146000000Y-115750000D03*
X146000000Y-113850000D03*
%TD*%
D10*
%TO.C,R31*%
X114000000Y-108917500D03*
X114000000Y-110742500D03*
%TD*%
D30*
%TO.C,C21*%
X169950000Y-113300000D03*
X175550000Y-113300000D03*
%TD*%
D18*
%TO.C,R10*%
X176912500Y-93200000D03*
X175087500Y-93200000D03*
%TD*%
%TO.C,R6*%
X176912500Y-101200000D03*
X175087500Y-101200000D03*
%TD*%
D31*
%TO.C,BOOT1*%
X174700000Y-88300000D03*
X174700000Y-84100000D03*
%TD*%
D11*
%TO.C,R34*%
X153000000Y-107112500D03*
X153000000Y-105287500D03*
%TD*%
D18*
%TO.C,R5*%
X176912500Y-103200000D03*
X175087500Y-103200000D03*
%TD*%
D11*
%TO.C,R40*%
X160650000Y-115982500D03*
X160650000Y-114157500D03*
%TD*%
D25*
%TO.C,U6*%
X152800000Y-112550000D03*
D26*
X154705000Y-109675000D03*
X153435000Y-109675000D03*
X152165000Y-109675000D03*
X150895000Y-109675000D03*
X150895000Y-115425000D03*
X152165000Y-115425000D03*
X153435000Y-115425000D03*
X154705000Y-115425000D03*
%TD*%
D16*
%TO.C,C16*%
X146000000Y-108850000D03*
X146000000Y-110750000D03*
%TD*%
D10*
%TO.C,R36*%
X148500000Y-108887500D03*
X148500000Y-110712500D03*
%TD*%
D31*
%TO.C,EN1*%
X146200000Y-88570000D03*
X146200000Y-84370000D03*
%TD*%
D32*
%TO.C,D2*%
X139200000Y-84412500D03*
X139200000Y-85987500D03*
%TD*%
D33*
%TO.C,C9*%
X129000000Y-98700000D03*
X129000000Y-104300000D03*
%TD*%
D24*
%TO.C,R22*%
X142500000Y-117737500D03*
X142500000Y-120662500D03*
%TD*%
D11*
%TO.C,R30*%
X114000000Y-115782500D03*
X114000000Y-113957500D03*
%TD*%
D16*
%TO.C,C13*%
X111500000Y-108900000D03*
X111500000Y-110800000D03*
%TD*%
%TO.C,C7*%
X123000000Y-108900000D03*
X123000000Y-110800000D03*
%TD*%
D14*
%TO.C,R12*%
X173787500Y-90200000D03*
X175612500Y-90200000D03*
%TD*%
D18*
%TO.C,R4*%
X176912500Y-105200000D03*
X175087500Y-105200000D03*
%TD*%
D16*
%TO.C,C10*%
X134500000Y-108850000D03*
X134500000Y-110750000D03*
%TD*%
D18*
%TO.C,R2*%
X171912500Y-106700000D03*
X170087500Y-106700000D03*
%TD*%
D34*
%TO.C,U2*%
X133470000Y-89120000D03*
X133470000Y-91420000D03*
D35*
X139770000Y-91420000D03*
D34*
X133470000Y-93720000D03*
%TD*%
D24*
%TO.C,R32*%
X153500000Y-117837500D03*
X153500000Y-120762500D03*
%TD*%
D14*
%TO.C,R15*%
X118837500Y-95200000D03*
X120662500Y-95200000D03*
%TD*%
D30*
%TO.C,C15*%
X117400000Y-103700000D03*
X123000000Y-103700000D03*
%TD*%
D25*
%TO.C,U4*%
X141300000Y-112350000D03*
D26*
X143205000Y-109475000D03*
X141935000Y-109475000D03*
X140665000Y-109475000D03*
X139395000Y-109475000D03*
X139395000Y-115225000D03*
X140665000Y-115225000D03*
X141935000Y-115225000D03*
X143205000Y-115225000D03*
%TD*%
D18*
%TO.C,R3*%
X171912500Y-104700000D03*
X170087500Y-104700000D03*
%TD*%
D36*
%TO.C,C1*%
X120725000Y-97200000D03*
X119175000Y-97200000D03*
%TD*%
D10*
%TO.C,R33*%
X155250000Y-105287500D03*
X155250000Y-107112500D03*
%TD*%
D11*
%TO.C,R14*%
X119000000Y-91612500D03*
X119000000Y-89787500D03*
%TD*%
D18*
%TO.C,R38*%
X164662500Y-106200000D03*
X162837500Y-106200000D03*
%TD*%
D17*
%TO.C,C14*%
X111500000Y-115800000D03*
X111500000Y-113900000D03*
%TD*%
D24*
%TO.C,R37*%
X165500000Y-117800000D03*
X165500000Y-120725000D03*
%TD*%
D25*
%TO.C,U7*%
X164950000Y-112550000D03*
D26*
X166855000Y-109675000D03*
X165585000Y-109675000D03*
X164315000Y-109675000D03*
X163045000Y-109675000D03*
X163045000Y-115425000D03*
X164315000Y-115425000D03*
X165585000Y-115425000D03*
X166855000Y-115425000D03*
%TD*%
M02*
